<svg xmlns="http://www.w3.org/2000/svg" width="640" height="400"><g transform="translate(100,40)"><g class="axis" transform="translate(0, 288)" fill="none" font-size="10" font-family="sans-serif" text-anchor="middle"><path class="domain" stroke="#000" d="M0.5,6V0.5H500.5V6"/><g class="tick" opacity="1" transform="translate(0.5,0)"><line stroke="#000" y2="6"/><text fill="#000" y="9" dy="0.71em" font-size="29px" font-family="Microsoft YaHei" transform="translate(0, 5)">0</text></g><g class="tick" opacity="1" transform="translate(71.92857142857143,0)"><line stroke="#000" y2="6"/><text fill="#000" y="9" dy="0.71em" font-size="29px" font-family="Microsoft YaHei" transform="translate(0, 5)">1.02</text></g><g class="tick" opacity="1" transform="translate(143.35714285714286,0)"><line stroke="#000" y2="6"/><text fill="#000" y="9" dy="0.71em" font-size="29px" font-family="Microsoft YaHei" transform="translate(0, 5)">1.05</text></g><g class="tick" opacity="1" transform="translate(214.78571428571428,0)"><line stroke="#000" y2="6"/><text fill="#000" y="9" dy="0.71em" font-size="29px" font-family="Microsoft YaHei" transform="translate(0, 5)">1.08</text></g><g class="tick" opacity="1" transform="translate(286.2142857142857,0)"><line stroke="#000" y2="6"/><text fill="#000" y="9" dy="0.71em" font-size="29px" font-family="Microsoft YaHei" transform="translate(0, 5)">1.11</text></g><g class="tick" opacity="1" transform="translate(357.64285714285717,0)"><line stroke="#000" y2="6"/><text fill="#000" y="9" dy="0.71em" font-size="29px" font-family="Microsoft YaHei" transform="translate(0, 5)">1.14</text></g><g class="tick" opacity="1" transform="translate(429.07142857142856,0)"><line stroke="#000" y2="6"/><text fill="#000" y="9" dy="0.71em" font-size="29px" font-family="Microsoft YaHei" transform="translate(0, 5)">1.17</text></g><g class="tick" opacity="1" transform="translate(500.5,0)"><line stroke="#000" y2="6"/><text fill="#000" y="9" dy="0.71em" font-size="29px" font-family="Microsoft YaHei" transform="translate(0, 5)">1.2</text></g></g><g class="axis" fill="none" font-size="10" font-family="sans-serif" text-anchor="end"><path class="domain" stroke="#000" d="M-6,288.5H0.5V0.5H-6"/><g class="tick" opacity="1" transform="translate(0,288.5)"><line stroke="#000" x2="-6"/><text fill="#000" x="-9" dy="0.32em" font-size="29px" font-family="Microsoft YaHei" transform="translate(0, 5)">0</text></g><g class="tick" opacity="1" transform="translate(0,230.9)"><line stroke="#000" x2="-6"/><text fill="#000" x="-9" dy="0.32em" font-size="29px" font-family="Microsoft YaHei" transform="translate(0, 5)">0.2</text></g><g class="tick" opacity="1" transform="translate(0,173.3)"><line stroke="#000" x2="-6"/><text fill="#000" x="-9" dy="0.32em" font-size="29px" font-family="Microsoft YaHei" transform="translate(0, 5)">0.4</text></g><g class="tick" opacity="1" transform="translate(0,115.70000000000002)"><line stroke="#000" x2="-6"/><text fill="#000" x="-9" dy="0.32em" font-size="29px" font-family="Microsoft YaHei" transform="translate(0, 5)">0.6</text></g><g class="tick" opacity="1" transform="translate(0,58.099999999999994)"><line stroke="#000" x2="-6"/><text fill="#000" x="-9" dy="0.32em" font-size="29px" font-family="Microsoft YaHei" transform="translate(0, 5)">0.8</text></g><g class="tick" opacity="1" transform="translate(0,0.5)"><line stroke="#000" x2="-6"/><text fill="#000" x="-9" dy="0.32em" font-size="29px" font-family="Microsoft YaHei" transform="translate(0, 5)">1</text></g></g><text text-anchor="middle" x="250" y="358" font-size="29px" font-family="Microsoft YaHei">Growth Rate</text><text text-anchor="middle" transform="rotate(-90)" y="-70" x="-144" font-size="29px" font-family="Microsoft YaHei">Average Aspect Ratio</text><path fill="none" stroke="#1b9e77" stroke-width="2" d="M23.80952380952381,91.92144153599997L47.61904761904762,95.09387356799999L71.42857142857143,95.15251036800001L95.23809523809524,93.059702208L119.04761904761905,89.69787072L142.85714285714286,99.522364896L166.66666666666669,101.40155654399999L190.47619047619048,92.08322755200001L214.28571428571428,98.25352848L238.0952380952381,124.53174547199998L261.9047619047619,125.07408460800002L285.7142857142857,114.48802108799998L309.5238095238095,119.120292L333.33333333333337,120.184105536L357.14285714285717,119.38227350399998L380.95238095238096,96.634392192L404.76190476190476,79.08165619200003L428.57142857142856,87.51040214400001L452.3809523809524,93.57382828799999L476.1904761904762,102.096761184L500,105.500670912"/><path fill="none" stroke="#d95f02" stroke-width="2" d="M23.80952380952381,88.76975759999999L47.61904761904762,89.59212979200001L71.42857142857143,87.04085212799998L95.23809523809524,111.582746208L119.04761904761905,101.73878697600003L142.85714285714286,106.42846032L166.66666666666669,117.96104678400002L190.47619047619048,106.57795103999999L214.28571428571428,113.26221648L238.0952380952381,120.235496832L261.9047619047619,111.40520601600002L285.7142857142857,106.552799136L309.5238095238095,108.973260576L333.33333333333337,105.610053024L357.14285714285717,92.63101247999998L380.95238095238096,104.79290544L404.76190476190476,100.962232416L428.57142857142856,100.562581152L452.3809523809524,79.60615718400001L476.1904761904762,77.423165856L500,78.33965558399998"/><path fill="none" stroke="#7570b3" stroke-width="2" d="M23.80952380952381,88.76975759999999L47.61904761904762,94.61564726399999L71.42857142857143,89.799162048L95.23809523809524,113.43249532799999L119.04761904761905,109.083768768L142.85714285714286,110.50532927999998L166.66666666666669,116.62449638400003L190.47619047619048,106.51978022399999L214.28571428571428,104.91212736L238.0952380952381,106.85849846400001L261.9047619047619,109.341225504L285.7142857142857,103.070052L309.5238095238095,78.46995801599999L333.33333333333337,84.877331328L357.14285714285717,112.78699631999999L380.95238095238096,99.68967619200001L404.76190476190476,111.198003264L428.57142857142856,100.507945248L452.3809523809524,94.224173184L476.1904761904762,86.89619548799999L500,81.42346252800002"/><path fill="none" stroke="#e7298a" stroke-width="2" d="M23.80952380952381,196.721205408L47.61904761904762,190.595983104L71.42857142857143,191.168756352L95.23809523809524,167.143035456L119.04761904761905,145.043789184L142.85714285714286,133.95366144L166.66666666666669,131.75992857600002L190.47619047619048,108.16766409600001L214.28571428571428,115.95051417600001L238.0952380952381,110.96374694400001L261.9047619047619,100.519498656L285.7142857142857,119.76330240000001L309.5238095238095,146.216909088L333.33333333333337,148.564882656L357.14285714285717,162.277995456L380.95238095238096,171.99866217599998L404.76190476190476,183.413083104L428.57142857142856,193.78586592L452.3809523809524,203.057344224L476.1904761904762,207.9649512L500,216.112745952"/><path fill="none" stroke="#66a61e" stroke-width="2" d="M23.80952380952381,126.94574390400001L47.61904761904762,123.92774467199999L71.42857142857143,124.618511808L95.23809523809524,136.099141344L119.04761904761905,127.78466227200002L142.85714285714286,113.39603193600001L166.66666666666669,111.45368707200001L190.47619047619048,122.85595843200002L214.28571428571428,136.357382016L238.0952380952381,144.055217664L261.9047619047619,146.98758816L285.7142857142857,153.97532899200002L309.5238095238095,162.577715328L333.33333333333337,175.855126176L357.14285714285717,191.178392832L380.95238095238096,198.249760224L404.76190476190476,214.218871776L428.57142857142856,226.03691462400002L452.3809523809524,235.950914016L476.1904761904762,242.192677536L500,251.076068064"/><path fill="none" stroke="#e6ab02" stroke-width="2" d="M23.80952380952381,145.731586176L47.61904761904762,276.519161376L71.42857142857143,276.686839008L95.23809523809524,274.170583872L119.04761904761905,271.8339336L142.85714285714286,270.323110368L166.66666666666669,268.079373216L190.47619047619048,265.178373984L214.28571428571428,262.140190272L238.0952380952381,259.367639328L261.9047619047619,257.792406336L285.7142857142857,254.991808512L309.5238095238095,252.114427584L333.33333333333337,250.006229856L357.14285714285717,247.207689792L380.95238095238096,245.240344224L404.76190476190476,241.508777184L428.57142857142856,239.432480928L452.3809523809524,237.891843936L476.1904761904762,235.578950784L500,232.550432928"/><path fill="none" stroke="#a6761d" stroke-width="2" d="M23.80952380952381,125.946859104L47.61904761904762,100.69467839999999L71.42857142857143,90.70925846399999L95.23809523809524,119.31357600000001L119.04761904761905,112.52112681599999L142.85714285714286,117.550019808L166.66666666666669,104.74094534400001L190.47619047619048,84.49695792L214.28571428571428,100.416164544L238.0952380952381,108.94563849600002L261.9047619047619,102.06260755199997L285.7142857142857,106.050154752L309.5238095238095,67.209537888L333.33333333333337,64.79223235200001L357.14285714285717,71.69667696000002L380.95238095238096,69.38368329600002L404.76190476190476,75.351482208L428.57142857142856,88.12099324799999L452.3809523809524,93.927263904L476.1904761904762,96.41534572799998L500,88.49840975999999"/><path fill="none" stroke="#666666" stroke-width="2" d="M23.80952380952381,91.92144153599997L47.61904761904762,95.09387356799999L71.42857142857143,95.15251036800001L95.23809523809524,93.059702208L119.04761904761905,89.69787072L142.85714285714286,99.522364896L166.66666666666669,101.40155654399999L190.47619047619048,92.08322755200001L214.28571428571428,98.25352848L238.0952380952381,124.53174547199998L261.9047619047619,125.07408460800002L285.7142857142857,114.48802108799998L309.5238095238095,119.120292L333.33333333333337,120.184105536L357.14285714285717,119.38227350399998L380.95238095238096,96.634392192L404.76190476190476,79.08165619200003L428.57142857142856,87.51040214400001L452.3809523809524,93.57382828799999L476.1904761904762,102.096761184L500,105.500670912"/></g></svg>