<svg xmlns="http://www.w3.org/2000/svg" width="640" height="400"><g transform="translate(100,40)"><g class="axis" transform="translate(0, 288)" fill="none" font-size="10" font-family="sans-serif" text-anchor="middle"><path class="domain" stroke="#000" d="M0.5,6V0.5H500.5V6"/><g class="tick" opacity="1" transform="translate(0.5,0)"><line stroke="#000" y2="6"/><text fill="#000" y="9" dy="0.71em" font-size="29px" font-family="Microsoft YaHei" transform="translate(0, 5)">0</text></g><g class="tick" opacity="1" transform="translate(71.92857142857143,0)"><line stroke="#000" y2="6"/><text fill="#000" y="9" dy="0.71em" font-size="29px" font-family="Microsoft YaHei" transform="translate(0, 5)">1.02</text></g><g class="tick" opacity="1" transform="translate(143.35714285714286,0)"><line stroke="#000" y2="6"/><text fill="#000" y="9" dy="0.71em" font-size="29px" font-family="Microsoft YaHei" transform="translate(0, 5)">1.05</text></g><g class="tick" opacity="1" transform="translate(214.78571428571428,0)"><line stroke="#000" y2="6"/><text fill="#000" y="9" dy="0.71em" font-size="29px" font-family="Microsoft YaHei" transform="translate(0, 5)">1.08</text></g><g class="tick" opacity="1" transform="translate(286.2142857142857,0)"><line stroke="#000" y2="6"/><text fill="#000" y="9" dy="0.71em" font-size="29px" font-family="Microsoft YaHei" transform="translate(0, 5)">1.11</text></g><g class="tick" opacity="1" transform="translate(357.64285714285717,0)"><line stroke="#000" y2="6"/><text fill="#000" y="9" dy="0.71em" font-size="29px" font-family="Microsoft YaHei" transform="translate(0, 5)">1.14</text></g><g class="tick" opacity="1" transform="translate(429.07142857142856,0)"><line stroke="#000" y2="6"/><text fill="#000" y="9" dy="0.71em" font-size="29px" font-family="Microsoft YaHei" transform="translate(0, 5)">1.17</text></g><g class="tick" opacity="1" transform="translate(500.5,0)"><line stroke="#000" y2="6"/><text fill="#000" y="9" dy="0.71em" font-size="29px" font-family="Microsoft YaHei" transform="translate(0, 5)">1.2</text></g></g><g class="axis" fill="none" font-size="10" font-family="sans-serif" text-anchor="end"><path class="domain" stroke="#000" d="M-6,288.5H0.5V0.5H-6"/><g class="tick" opacity="1" transform="translate(0,288.5)"><line stroke="#000" x2="-6"/><text fill="#000" x="-9" dy="0.32em" font-size="29px" font-family="Microsoft YaHei" transform="translate(0, 5)">0</text></g><g class="tick" opacity="1" transform="translate(0,230.9)"><line stroke="#000" x2="-6"/><text fill="#000" x="-9" dy="0.32em" font-size="29px" font-family="Microsoft YaHei" transform="translate(0, 5)">0.2</text></g><g class="tick" opacity="1" transform="translate(0,173.3)"><line stroke="#000" x2="-6"/><text fill="#000" x="-9" dy="0.32em" font-size="29px" font-family="Microsoft YaHei" transform="translate(0, 5)">0.4</text></g><g class="tick" opacity="1" transform="translate(0,115.70000000000002)"><line stroke="#000" x2="-6"/><text fill="#000" x="-9" dy="0.32em" font-size="29px" font-family="Microsoft YaHei" transform="translate(0, 5)">0.6</text></g><g class="tick" opacity="1" transform="translate(0,58.099999999999994)"><line stroke="#000" x2="-6"/><text fill="#000" x="-9" dy="0.32em" font-size="29px" font-family="Microsoft YaHei" transform="translate(0, 5)">0.8</text></g><g class="tick" opacity="1" transform="translate(0,0.5)"><line stroke="#000" x2="-6"/><text fill="#000" x="-9" dy="0.32em" font-size="29px" font-family="Microsoft YaHei" transform="translate(0, 5)">1</text></g></g><text text-anchor="middle" x="250" y="358" font-size="29px" font-family="Microsoft YaHei">Growth Rate</text><text text-anchor="middle" transform="rotate(-90)" y="-70" x="-144" font-size="29px" font-family="Microsoft YaHei">Median Aspect Ratio</text><path fill="none" stroke="#1b9e77" stroke-width="2" d="M23.80952380952381,81.689710752L47.61904761904762,76.67659497599999L71.42857142857143,77.627673216L95.23809523809524,115.70339664L119.04761904761905,91.619123328L142.85714285714286,103.406989824L166.66666666666669,113.88935289600002L190.47619047619048,106.35981004800001L214.28571428571428,107.40765859200002L238.0952380952381,111.705928416L261.9047619047619,101.568698208L285.7142857142857,108.085073472L309.5238095238095,102.223743552L333.33333333333337,112.45121913599999L357.14285714285717,81.62147865600002L380.95238095238096,107.82318038400001L404.76190476190476,99.81760291200001L428.57142857142856,95.392196928L452.3809523809524,78.988098528L476.1904761904762,74.357686656L500,71.856141984"/><path fill="none" stroke="#d95f02" stroke-width="2" d="M23.80952380952381,81.689710752L47.61904761904762,76.67659497599999L71.42857142857143,77.627673216L95.23809523809524,115.70339664L119.04761904761905,91.619123328L142.85714285714286,103.406989824L166.66666666666669,113.88935289600002L190.47619047619048,106.35981004800001L214.28571428571428,107.40765859200002L238.0952380952381,111.705928416L261.9047619047619,101.568698208L285.7142857142857,108.085073472L309.5238095238095,102.223743552L333.33333333333337,112.45121913599999L357.14285714285717,81.62147865600002L380.95238095238096,107.82318038400001L404.76190476190476,99.81760291200001L428.57142857142856,95.392196928L452.3809523809524,78.988098528L476.1904761904762,74.357686656L500,71.856141984"/><path fill="none" stroke="#7570b3" stroke-width="2" d="M23.80952380952381,81.689710752L47.61904761904762,87.73555680000001L71.42857142857143,83.046586464L95.23809523809524,117.77123865600001L119.04761904761905,109.61536377599998L142.85714285714286,100.54554883200001L166.66666666666669,117.03000844799999L190.47619047619048,116.44782969600001L214.28571428571428,107.98864560000001L238.0952380952381,89.30380953599999L261.9047619047619,108.59317632L285.7142857142857,99.45814031999998L309.5238095238095,76.800751488L333.33333333333337,87.92041017600002L357.14285714285717,115.69998902400002L380.95238095238096,99.26446118400003L404.76190476190476,94.77209001599999L428.57142857142856,95.55234451199999L452.3809523809524,91.20377692800002L476.1904761904762,83.45259043200002L500,75.98796825599999"/><path fill="none" stroke="#e7298a" stroke-width="2" d="M23.80952380952381,162.08724844800003L47.61904761904762,153.49119984L71.42857142857143,155.432316096L95.23809523809524,115.94941228799999L119.04761904761905,89.01277574400001L142.85714285714286,70.373121696L166.66666666666669,67.69594771199999L190.47619047619048,61.44222959999999L214.28571428571428,83.38652755199999L238.0952380952381,78.56729798399999L261.9047619047619,85.86249177599998L285.7142857142857,99.29464761599999L309.5238095238095,105.96653136L333.33333333333337,110.677951296L357.14285714285717,128.675628864L380.95238095238096,140.89150454400001L404.76190476190476,148.14574790400002L428.57142857142856,149.60712902400002L452.3809523809524,161.13403123199998L476.1904761904762,158.319897984L500,159.23126707199998"/><path fill="none" stroke="#66a61e" stroke-width="2" d="M23.80952380952381,76.91968799999998L47.61904761904762,68.69995430399999L71.42857142857143,70.550647776L95.23809523809524,68.577397056L119.04761904761905,61.41330172799999L142.85714285714286,54.924891840000015L166.66666666666669,58.40449689600001L190.47619047619048,81.15382656L214.28571428571428,88.72011935999998L238.0952380952381,104.4678384L261.9047619047619,105.43431830399999L285.7142857142857,99.054573984L309.5238095238095,120.54711657600001L333.33333333333337,123.18904051200002L357.14285714285717,127.83502137599999L380.95238095238096,133.41211516799999L404.76190476190476,146.631107808L428.57142857142856,174.578215392L452.3809523809524,179.91054950400002L476.1904761904762,168.43656528L500,179.592200928"/><path fill="none" stroke="#e6ab02" stroke-width="2" d="M23.80952380952381,62.487219167999996L47.61904761904762,277.454277504L71.42857142857143,277.52671814400003L95.23809523809524,275.988019104L119.04761904761905,274.403996352L142.85714285714286,272.8098936L166.66666666666669,270.968948064L190.47619047619048,268.790376096L214.28571428571428,266.230592064L238.0952380952381,262.93608374400003L261.9047619047619,261.592843392L285.7142857142857,258.817360896L309.5238095238095,255.866416128L333.33333333333337,253.11785328L357.14285714285717,250.12150128L380.95238095238096,248.79104899200001L404.76190476190476,245.16591119999998L428.57142857142856,243.54914544000002L452.3809523809524,240.854039424L476.1904761904762,238.53317328L500,236.553892704"/><path fill="none" stroke="#a6761d" stroke-width="2" d="M23.80952380952381,97.97554656L47.61904761904762,70.316913312L71.42857142857143,60.873321312L95.23809523809524,108.29504592L119.04761904761905,97.87671215999998L142.85714285714286,93.82831459200003L166.66666666666669,68.20402896000002L190.47619047619048,63.47315289599999L214.28571428571428,85.26631766400001L238.0952380952381,96.47175456L261.9047619047619,80.89844428800001L285.7142857142857,92.480603616L309.5238095238095,53.35107436800001L333.33333333333337,61.669112544L357.14285714285717,61.05410841599999L380.95238095238096,64.74077251199998L404.76190476190476,67.528960128L428.57142857142856,79.532159616L452.3809523809524,92.094633792L476.1904761904762,91.27088150400002L500,83.332662048"/><path fill="none" stroke="#666666" stroke-width="2" d="M23.80952380952381,93.007796256L47.61904761904762,64.14977577600001L71.42857142857143,66.51678902399999L95.23809523809524,79.623022176L119.04761904761905,81.534376224L142.85714285714286,90.98332156800001L166.66666666666669,81.503817408L190.47619047619048,81.43702214400003L214.28571428571428,97.52452675199999L238.0952380952381,127.898577792L261.9047619047619,130.05704822399997L285.7142857142857,111.536523072L309.5238095238095,122.020537824L333.33333333333337,122.47583126400002L357.14285714285717,122.32491926399999L380.95238095238096,98.84048256L404.76190476190476,79.76426889599998L428.57142857142856,83.97881078400002L452.3809523809524,96.92604950399999L476.1904761904762,105.66652982400001L500,109.892865312"/></g></svg>