<svg xmlns="http://www.w3.org/2000/svg" width="640" height="400"><g transform="translate(110,40)"><g class="axis" transform="translate(0, 288)" fill="none" font-size="10" font-family="sans-serif" text-anchor="middle"><path class="domain" stroke="#000" d="M0.5,6V0.5H490.5V6"/><g class="tick" opacity="1" transform="translate(54.94444444444444,0)"><line stroke="#000" y2="6"/><text fill="#000" y="9" dy="0.71em" font-size="29px" font-family="Microsoft YaHei" transform="translate(0, 5)">1</text></g><g class="tick" opacity="1" transform="translate(109.38888888888889,0)"><line stroke="#000" y2="6"/><text fill="#000" y="9" dy="0.71em" font-size="29px" font-family="Microsoft YaHei" transform="translate(0, 5)">2</text></g><g class="tick" opacity="1" transform="translate(163.83333333333331,0)"><line stroke="#000" y2="6"/><text fill="#000" y="9" dy="0.71em" font-size="29px" font-family="Microsoft YaHei" transform="translate(0, 5)">3</text></g><g class="tick" opacity="1" transform="translate(218.27777777777777,0)"><line stroke="#000" y2="6"/><text fill="#000" y="9" dy="0.71em" font-size="29px" font-family="Microsoft YaHei" transform="translate(0, 5)">4</text></g><g class="tick" opacity="1" transform="translate(272.72222222222223,0)"><line stroke="#000" y2="6"/><text fill="#000" y="9" dy="0.71em" font-size="29px" font-family="Microsoft YaHei" transform="translate(0, 5)">5</text></g><g class="tick" opacity="1" transform="translate(327.16666666666663,0)"><line stroke="#000" y2="6"/><text fill="#000" y="9" dy="0.71em" font-size="29px" font-family="Microsoft YaHei" transform="translate(0, 5)">6</text></g><g class="tick" opacity="1" transform="translate(381.6111111111111,0)"><line stroke="#000" y2="6"/><text fill="#000" y="9" dy="0.71em" font-size="29px" font-family="Microsoft YaHei" transform="translate(0, 5)">7</text></g><g class="tick" opacity="1" transform="translate(436.05555555555554,0)"><line stroke="#000" y2="6"/><text fill="#000" y="9" dy="0.71em" font-size="29px" font-family="Microsoft YaHei" transform="translate(0, 5)">8</text></g><g class="tick" opacity="1" transform="translate(490.5,0)"><line stroke="#000" y2="6"/><text fill="#000" y="9" dy="0.71em" font-size="29px" font-family="Microsoft YaHei" transform="translate(0, 5)">9</text></g></g><g class="axis" fill="none" font-size="10" font-family="sans-serif" text-anchor="end"><path class="domain" stroke="#000" d="M-6,288.5H0.5V0.5H-6"/><g class="tick" opacity="1" transform="translate(0,288.5)"><line stroke="#000" x2="-6"/><text fill="#000" x="-9" dy="0.32em" font-size="29px" font-family="Microsoft YaHei" transform="translate(0, 5)">0.1</text></g><g class="tick" opacity="1" transform="translate(0,224.3769077993951)"><line stroke="#000" x2="-6"/><text fill="#000" x="-9" dy="0.32em" font-size="29px" font-family="Microsoft YaHei" transform="translate(0, 5)">1</text></g><g class="tick" opacity="1" transform="translate(0,160.25381559879023)"><line stroke="#000" x2="-6"/><text fill="#000" x="-9" dy="0.32em" font-size="29px" font-family="Microsoft YaHei" transform="translate(0, 5)">10</text></g><g class="tick" opacity="1" transform="translate(0,96.13072339818538)"><line stroke="#000" x2="-6"/><text fill="#000" x="-9" dy="0.32em" font-size="29px" font-family="Microsoft YaHei" transform="translate(0, 5)">100</text></g><g class="tick" opacity="1" transform="translate(0,32.00763119758045)"><line stroke="#000" x2="-6"/><text fill="#000" x="-9" dy="0.32em" font-size="29px" font-family="Microsoft YaHei" transform="translate(0, 5)">1000</text></g></g><text text-anchor="middle" x="245" y="358" font-size="29px" font-family="Microsoft YaHei">Depth</text><text text-anchor="middle" transform="rotate(-90)" y="-80" x="-144" font-size="29px" font-family="Microsoft YaHei">Running Time (ms)</text><path fill="none" stroke="#1b9e77" stroke-width="2" d="M54.44444444444444,83.31746161243007L108.88888888888889,108.44148394740611L163.33333333333331,107.68104512981188L217.77777777777777,113.77307118537863L272.22222222222223,126.03603798765818L326.66666666666663,128.8807458529238L381.1111111111111,134.21738510674268L435.55555555555554,129.1240917354711L490,133.4034315484667"/><path fill="none" stroke="#d95f02" stroke-width="2" d="M54.44444444444444,188.8728644831458L108.88888888888889,208.15302865884752L163.33333333333331,211.23763304699207L217.77777777777777,205.56710020580437L272.22222222222223,211.5764737552343L326.66666666666663,213.87969303458323L381.1111111111111,214.4324307301033L435.55555555555554,214.7850037543751L490,212.00881539425632"/><path fill="none" stroke="#7570b3" stroke-width="2" d="M54.44444444444444,198.2710137132279L108.88888888888889,205.41111993528807L163.33333333333331,212.43024553411715L217.77777777777777,207.36576429857814L272.22222222222223,210.01026494385235L326.66666666666663,212.62756744863333L381.1111111111111,214.56008699726243L435.55555555555554,215.36029588981432L490,214.8908856158915"/><path fill="none" stroke="#e7298a" stroke-width="2" d="M54.44444444444444,205.0453348294758L108.88888888888889,207.062192898611L163.33333333333331,212.3736235877651L217.77777777777777,209.0765585505863L272.22222222222223,213.67178575246953L326.66666666666663,212.06251318955378L381.1111111111111,209.57263611639286L435.55555555555554,215.19832247554706L490,214.13014914931443"/><path fill="none" stroke="#66a61e" stroke-width="2" d="M54.44444444444444,201.0534408898426L108.88888888888889,208.68712452238594L163.33333333333331,210.39114872194216L217.77777777777777,208.53902742832747L272.22222222222223,210.29573753688214L326.66666666666663,213.46637724599321L381.1111111111111,209.54549051380712L435.55555555555554,211.60459874452803L490,212.1084659942769"/><path fill="none" stroke="#e6ab02" stroke-width="2" d="M54.44444444444444,203.0462470371832L108.88888888888889,210.85362386537662L163.33333333333331,205.72149226052764L217.77777777777777,208.11062640895628L272.22222222222223,213.23984521401752L326.66666666666663,213.33904819990693L381.1111111111111,214.43381947015752L435.55555555555554,215.23791074907618L490,215.09004870202278"/><path fill="none" stroke="#a6761d" stroke-width="2" d="M54.44444444444444,204.85930426404983L108.88888888888889,211.55982711602235L163.33333333333331,209.70826016240383L217.77777777777777,210.72829374787506L272.22222222222223,213.57851023381704L326.66666666666663,213.8049157537987L381.1111111111111,213.82897795145527L435.55555555555554,214.99737403851458L490,210.26224136341574"/><path fill="none" stroke="#666666" stroke-width="2" d="M54.44444444444444,211.3595961043759L108.88888888888889,214.1172000079927L163.33333333333331,215.11179177670027L217.77777777777777,212.77914580085496L272.22222222222223,207.97279133697955L326.66666666666663,210.32054382326768L381.1111111111111,214.88665066896579L435.55555555555554,214.20678995945633L490,216.75513138739407"/></g></svg>