<svg xmlns="http://www.w3.org/2000/svg" width="640" height="400"><g transform="translate(100,40)"><g class="axis" transform="translate(0, 288)" fill="none" font-size="10" font-family="sans-serif" text-anchor="middle"><path class="domain" stroke="#000" d="M0.5,6V0.5H500.5V6"/><g class="tick" opacity="1" transform="translate(0.5,0)"><line stroke="#000" y2="6"/><text fill="#000" y="9" dy="0.71em" font-size="29px" font-family="Microsoft YaHei" transform="translate(0, 5)">0</text></g><g class="tick" opacity="1" transform="translate(71.92857142857143,0)"><line stroke="#000" y2="6"/><text fill="#000" y="9" dy="0.71em" font-size="29px" font-family="Microsoft YaHei" transform="translate(0, 5)">1.02</text></g><g class="tick" opacity="1" transform="translate(143.35714285714286,0)"><line stroke="#000" y2="6"/><text fill="#000" y="9" dy="0.71em" font-size="29px" font-family="Microsoft YaHei" transform="translate(0, 5)">1.05</text></g><g class="tick" opacity="1" transform="translate(214.78571428571428,0)"><line stroke="#000" y2="6"/><text fill="#000" y="9" dy="0.71em" font-size="29px" font-family="Microsoft YaHei" transform="translate(0, 5)">1.08</text></g><g class="tick" opacity="1" transform="translate(286.2142857142857,0)"><line stroke="#000" y2="6"/><text fill="#000" y="9" dy="0.71em" font-size="29px" font-family="Microsoft YaHei" transform="translate(0, 5)">1.11</text></g><g class="tick" opacity="1" transform="translate(357.64285714285717,0)"><line stroke="#000" y2="6"/><text fill="#000" y="9" dy="0.71em" font-size="29px" font-family="Microsoft YaHei" transform="translate(0, 5)">1.14</text></g><g class="tick" opacity="1" transform="translate(429.07142857142856,0)"><line stroke="#000" y2="6"/><text fill="#000" y="9" dy="0.71em" font-size="29px" font-family="Microsoft YaHei" transform="translate(0, 5)">1.17</text></g><g class="tick" opacity="1" transform="translate(500.5,0)"><line stroke="#000" y2="6"/><text fill="#000" y="9" dy="0.71em" font-size="29px" font-family="Microsoft YaHei" transform="translate(0, 5)">1.2</text></g></g><g class="axis" fill="none" font-size="10" font-family="sans-serif" text-anchor="end"><path class="domain" stroke="#000" d="M-6,288.5H0.5V0.5H-6"/><g class="tick" opacity="1" transform="translate(0,288.5)"><line stroke="#000" x2="-6"/><text fill="#000" x="-9" dy="0.32em" font-size="29px" font-family="Microsoft YaHei" transform="translate(0, 5)">0</text></g><g class="tick" opacity="1" transform="translate(0,230.9)"><line stroke="#000" x2="-6"/><text fill="#000" x="-9" dy="0.32em" font-size="29px" font-family="Microsoft YaHei" transform="translate(0, 5)">0.2</text></g><g class="tick" opacity="1" transform="translate(0,173.3)"><line stroke="#000" x2="-6"/><text fill="#000" x="-9" dy="0.32em" font-size="29px" font-family="Microsoft YaHei" transform="translate(0, 5)">0.4</text></g><g class="tick" opacity="1" transform="translate(0,115.70000000000002)"><line stroke="#000" x2="-6"/><text fill="#000" x="-9" dy="0.32em" font-size="29px" font-family="Microsoft YaHei" transform="translate(0, 5)">0.6</text></g><g class="tick" opacity="1" transform="translate(0,58.099999999999994)"><line stroke="#000" x2="-6"/><text fill="#000" x="-9" dy="0.32em" font-size="29px" font-family="Microsoft YaHei" transform="translate(0, 5)">0.8</text></g><g class="tick" opacity="1" transform="translate(0,0.5)"><line stroke="#000" x2="-6"/><text fill="#000" x="-9" dy="0.32em" font-size="29px" font-family="Microsoft YaHei" transform="translate(0, 5)">1</text></g></g><text text-anchor="middle" x="250" y="358" font-size="29px" font-family="Microsoft YaHei">Growth Rate</text><text text-anchor="middle" transform="rotate(-90)" y="-70" x="-144" font-size="29px" font-family="Microsoft YaHei">Average Aspect Ratio</text><path fill="none" stroke="#1b9e77" stroke-width="2" d="M23.80952380952381,102.08107180799999L47.61904761904762,95.09462063999999L71.42857142857143,95.15607119999999L95.23809523809524,93.094267968L119.04761904761905,89.70721459199999L142.85714285714286,99.36043776L166.66666666666669,101.70694454399998L190.47619047619048,92.72087020800001L214.28571428571428,98.95232591999999L238.0952380952381,124.21711987200001L261.9047619047619,124.78770230400002L285.7142857142857,122.87377324799999L309.5238095238095,118.350232704L333.33333333333337,120.051742176L357.14285714285717,119.202713856L380.95238095238096,99.958226688L404.76190476190476,77.58196214399999L428.57142857142856,85.89948249599999L452.3809523809524,91.68959145600002L476.1904761904762,100.25368128L500,104.242249152"/><path fill="none" stroke="#d95f02" stroke-width="2" d="M23.80952380952381,77.38007471999998L47.61904761904762,90.071256672L71.42857142857143,89.515616832L95.23809523809524,108.82697241599999L119.04761904761905,116.061636384L142.85714285714286,114.25898102399998L166.66666666666669,117.603059616L190.47619047619048,109.329718464L214.28571428571428,104.22151344L238.0952380952381,101.88928310400001L261.9047619047619,101.20615516799998L285.7142857142857,96.281973792L309.5238095238095,115.78460688000001L333.33333333333337,106.810733088L357.14285714285717,100.341854208L380.95238095238096,97.844498496L404.76190476190476,92.49484723200001L428.57142857142856,91.08172281600002L452.3809523809524,89.87617843200002L476.1904761904762,83.9772792L500,73.998204192"/><path fill="none" stroke="#7570b3" stroke-width="2" d="M23.80952380952381,77.38007471999998L47.61904761904762,95.57176867199999L71.42857142857143,95.986259136L95.23809523809524,110.37502454399998L119.04761904761905,110.01951475200002L142.85714285714286,110.480966784L166.66666666666669,117.42896995199999L190.47619047619048,104.881210848L214.28571428571428,111.12331824L238.0952380952381,103.86917136L261.9047619047619,95.90540486399999L285.7142857142857,105.753858912L309.5238095238095,112.899966336L333.33333333333337,111.577965984L357.14285714285717,108.344344608L380.95238095238096,106.822227744L404.76190476190476,103.27805798399999L428.57142857142856,102.95517830400001L452.3809523809524,103.76053718400001L476.1904761904762,103.97331648000002L500,85.607864352"/><path fill="none" stroke="#e7298a" stroke-width="2" d="M23.80952380952381,196.721205408L47.61904761904762,211.242518784L71.42857142857143,202.71749990400002L95.23809523809524,219.1612536L119.04761904761905,229.01026752L142.85714285714286,234.922635936L166.66666666666669,244.359747072L190.47619047619048,252.175814784L214.28571428571428,258.5721816L238.0952380952381,267.042965184L261.9047619047619,272.59889184L285.7142857142857,281.418489216L309.5238095238095,283.993741728L333.33333333333337,284.47894368L357.14285714285717,286.296578496L380.95238095238096,286.536825216L404.76190476190476,286.996185216L428.57142857142856,287.160770592L452.3809523809524,286.978053024L476.1904761904762,286.852680288L500,287.14032"/><path fill="none" stroke="#66a61e" stroke-width="2" d="M23.80952380952381,126.94574390400001L47.61904761904762,120.66469977599999L71.42857142857143,125.28116697600001L95.23809523809524,118.898816832L119.04761904761905,116.894129472L142.85714285714286,113.42548022399998L166.66666666666669,109.26952358400001L190.47619047619048,142.609487328L214.28571428571428,168.951925728L238.0952380952381,178.434184896L261.9047619047619,227.099650752L285.7142857142857,167.503783968L309.5238095238095,178.28382124799998L333.33333333333337,176.410163808L357.14285714285717,219.54427747199998L380.95238095238096,229.79844259200001L404.76190476190476,199.56955968L428.57142857142856,212.65461100800002L452.3809523809524,224.395848L476.1904761904762,232.532120448L500,243.320691744"/><path fill="none" stroke="#e6ab02" stroke-width="2" d="M23.80952380952381,145.731586176L47.61904761904762,148.660084512L71.42857142857143,149.409195264L95.23809523809524,151.906651488L119.04761904761905,156.025223136L142.85714285714286,151.248196512L166.66666666666669,159.496575552L190.47619047619048,162.808645536L214.28571428571428,156.451805568L238.0952380952381,164.165402016L261.9047619047619,170.851372416L285.7142857142857,162.265501728L309.5238095238095,183.121183008L333.33333333333337,176.941288224L357.14285714285717,167.374030752L380.95238095238096,162.434184768L404.76190476190476,154.188163584L428.57142857142856,149.921969184L452.3809523809524,146.869048512L476.1904761904762,142.48588435199997L500,127.756361088"/><path fill="none" stroke="#a6761d" stroke-width="2" d="M23.80952380952381,122.475998016L47.61904761904762,134.738437536L71.42857142857143,128.964418272L95.23809523809524,134.305956288L119.04761904761905,135.46667376L142.85714285714286,137.958379488L166.66666666666669,130.334465664L190.47619047619048,125.97104649599999L214.28571428571428,122.76908294399999L238.0952380952381,133.004842272L261.9047619047619,114.13250928000002L285.7142857142857,108.13796236799999L309.5238095238095,115.91602128L333.33333333333337,92.07157996799998L357.14285714285717,102.30739862399997L380.95238095238096,110.97224985600002L404.76190476190476,114.129083232L428.57142857142856,119.433870144L452.3809523809524,102.87422208000001L476.1904761904762,108.27830015999999L500,108.12209039999999"/><path fill="none" stroke="#666666" stroke-width="2" d="M23.80952380952381,102.08107180799999L47.61904761904762,95.09462063999999L71.42857142857143,95.15607119999999L95.23809523809524,93.094267968L119.04761904761905,89.70721459199999L142.85714285714286,99.36043776L166.66666666666669,101.70694454399998L190.47619047619048,92.72087020800001L214.28571428571428,98.95232591999999L238.0952380952381,124.21711987200001L261.9047619047619,124.78770230400002L285.7142857142857,122.87377324799999L309.5238095238095,118.350232704L333.33333333333337,120.051742176L357.14285714285717,119.202713856L380.95238095238096,99.958226688L404.76190476190476,77.58196214399999L428.57142857142856,85.89948249599999L452.3809523809524,91.68959145600002L476.1904761904762,100.25368128L500,104.242249152"/></g></svg>