<svg xmlns="http://www.w3.org/2000/svg" width="640" height="400"><g transform="translate(100,40)"><g class="axis" transform="translate(0, 288)" fill="none" font-size="10" font-family="sans-serif" text-anchor="middle"><path class="domain" stroke="#000" d="M0.5,6V0.5H500.5V6"/><g class="tick" opacity="1" transform="translate(0.5,0)"><line stroke="#000" y2="6"/><text fill="#000" y="9" dy="0.71em" font-size="29px" font-family="Microsoft YaHei" transform="translate(0, 5)">0</text></g><g class="tick" opacity="1" transform="translate(71.92857142857143,0)"><line stroke="#000" y2="6"/><text fill="#000" y="9" dy="0.71em" font-size="29px" font-family="Microsoft YaHei" transform="translate(0, 5)">1.02</text></g><g class="tick" opacity="1" transform="translate(143.35714285714286,0)"><line stroke="#000" y2="6"/><text fill="#000" y="9" dy="0.71em" font-size="29px" font-family="Microsoft YaHei" transform="translate(0, 5)">1.05</text></g><g class="tick" opacity="1" transform="translate(214.78571428571428,0)"><line stroke="#000" y2="6"/><text fill="#000" y="9" dy="0.71em" font-size="29px" font-family="Microsoft YaHei" transform="translate(0, 5)">1.08</text></g><g class="tick" opacity="1" transform="translate(286.2142857142857,0)"><line stroke="#000" y2="6"/><text fill="#000" y="9" dy="0.71em" font-size="29px" font-family="Microsoft YaHei" transform="translate(0, 5)">1.11</text></g><g class="tick" opacity="1" transform="translate(357.64285714285717,0)"><line stroke="#000" y2="6"/><text fill="#000" y="9" dy="0.71em" font-size="29px" font-family="Microsoft YaHei" transform="translate(0, 5)">1.14</text></g><g class="tick" opacity="1" transform="translate(429.07142857142856,0)"><line stroke="#000" y2="6"/><text fill="#000" y="9" dy="0.71em" font-size="29px" font-family="Microsoft YaHei" transform="translate(0, 5)">1.17</text></g><g class="tick" opacity="1" transform="translate(500.5,0)"><line stroke="#000" y2="6"/><text fill="#000" y="9" dy="0.71em" font-size="29px" font-family="Microsoft YaHei" transform="translate(0, 5)">1.2</text></g></g><g class="axis" fill="none" font-size="10" font-family="sans-serif" text-anchor="end"><path class="domain" stroke="#000" d="M-6,288.5H0.5V0.5H-6"/><g class="tick" opacity="1" transform="translate(0,288.5)"><line stroke="#000" x2="-6"/><text fill="#000" x="-9" dy="0.32em" font-size="29px" font-family="Microsoft YaHei" transform="translate(0, 5)">0</text></g><g class="tick" opacity="1" transform="translate(0,230.9)"><line stroke="#000" x2="-6"/><text fill="#000" x="-9" dy="0.32em" font-size="29px" font-family="Microsoft YaHei" transform="translate(0, 5)">0.2</text></g><g class="tick" opacity="1" transform="translate(0,173.3)"><line stroke="#000" x2="-6"/><text fill="#000" x="-9" dy="0.32em" font-size="29px" font-family="Microsoft YaHei" transform="translate(0, 5)">0.4</text></g><g class="tick" opacity="1" transform="translate(0,115.70000000000002)"><line stroke="#000" x2="-6"/><text fill="#000" x="-9" dy="0.32em" font-size="29px" font-family="Microsoft YaHei" transform="translate(0, 5)">0.6</text></g><g class="tick" opacity="1" transform="translate(0,58.099999999999994)"><line stroke="#000" x2="-6"/><text fill="#000" x="-9" dy="0.32em" font-size="29px" font-family="Microsoft YaHei" transform="translate(0, 5)">0.8</text></g><g class="tick" opacity="1" transform="translate(0,0.5)"><line stroke="#000" x2="-6"/><text fill="#000" x="-9" dy="0.32em" font-size="29px" font-family="Microsoft YaHei" transform="translate(0, 5)">1</text></g></g><text text-anchor="middle" x="250" y="358" font-size="29px" font-family="Microsoft YaHei">Growth Rate</text><text text-anchor="middle" transform="rotate(-90)" y="-70" x="-144" font-size="29px" font-family="Microsoft YaHei">Median Aspect Ratio</text><path fill="none" stroke="#1b9e77" stroke-width="2" d="M23.80952380952381,104.205430944L47.61904761904762,64.26238377599998L71.42857142857143,66.58901193599999L95.23809523809524,80.327669472L119.04761904761905,82.05323759999999L142.85714285714286,90.452391552L166.66666666666669,80.55646099199998L190.47619047619048,82.05404313599999L214.28571428571428,98.58377519999999L238.0952380952381,126.40848767999998L261.9047619047619,128.2542984L285.7142857142857,127.859526432L309.5238095238095,121.276996704L333.33333333333337,122.173480512L357.14285714285717,122.24367763200001L380.95238095238096,101.90526883200002L404.76190476190476,77.08161283200002L428.57142857142856,83.912629536L452.3809523809524,95.77878681600001L476.1904761904762,105.52268563200002L500,106.28752291199999"/><path fill="none" stroke="#d95f02" stroke-width="2" d="M23.80952380952381,81.689710752L47.61904761904762,75.51927561599999L71.42857142857143,74.233719936L95.23809523809524,109.693205568L119.04761904761905,105.06000873600001L142.85714285714286,119.81617257599999L166.66666666666669,113.12924112000002L190.47619047619048,107.06097398399999L214.28571428571428,101.66639702399999L238.0952380952381,101.16605347200002L261.9047619047619,98.59126176000001L285.7142857142857,94.907969568L309.5238095238095,119.49867734399999L333.33333333333337,86.57831347199999L357.14285714285717,95.575730688L380.95238095238096,94.09459593599999L404.76190476190476,99.874389888L428.57142857142856,91.30351248L452.3809523809524,86.04792518399998L476.1904761904762,77.67319564799999L500,68.95744617599999"/><path fill="none" stroke="#7570b3" stroke-width="2" d="M23.80952380952381,81.689710752L47.61904761904762,89.374146048L71.42857142857143,89.469717696L95.23809523809524,109.97941392000001L119.04761904761905,97.63414272L142.85714285714286,90.77494031999998L166.66666666666669,121.458800736L190.47619047619048,111.47367455999998L214.28571428571428,109.97749785599999L238.0952380952381,101.57741510399998L261.9047619047619,87.15124079999998L285.7142857142857,104.81628211199998L309.5238095238095,110.152296864L333.33333333333337,92.242636704L357.14285714285717,107.8472232L380.95238095238096,109.781512416L404.76190476190476,105.518657376L428.57142857142856,106.31722089600001L452.3809523809524,111.74721091200001L476.1904761904762,110.391162912L500,82.34390159999998"/><path fill="none" stroke="#e7298a" stroke-width="2" d="M23.80952380952381,162.08724844800003L47.61904761904762,157.718667168L71.42857142857143,163.92153024L95.23809523809524,170.89924176L119.04761904761905,197.067812544L142.85714285714286,203.83327728L166.66666666666669,203.43018931199998L190.47619047619048,219.368546784L214.28571428571428,236.294525376L238.0952380952381,247.951309248L261.9047619047619,254.171084832L285.7142857142857,262.528015104L309.5238095238095,266.606457696L333.33333333333337,269.323722144L357.14285714285717,275.087841984L380.95238095238096,276.898987008L404.76190476190476,278.491927104L428.57142857142856,279.56437056L452.3809523809524,280.54601568L476.1904761904762,280.24763904L500,280.869502464"/><path fill="none" stroke="#66a61e" stroke-width="2" d="M23.80952380952381,76.91968799999998L47.61904761904762,95.08916361599998L71.42857142857143,95.055679296L95.23809523809524,82.460389824L119.04761904761905,106.365946176L142.85714285714286,103.120769664L166.66666666666669,77.498548992L190.47619047619048,115.44143702400001L214.28571428571428,121.03626643200002L238.0952380952381,132.199946784L261.9047619047619,124.96541644800001L285.7142857142857,129.321884448L309.5238095238095,129.04051104L333.33333333333337,127.202528736L357.14285714285717,127.99165161599998L380.95238095238096,124.14919939200001L404.76190476190476,125.502295968L428.57142857142856,124.746201216L452.3809523809524,128.72885328L476.1904761904762,135.23912899200002L500,144.86138294399998"/><path fill="none" stroke="#e6ab02" stroke-width="2" d="M23.80952380952381,62.487219167999996L47.61904761904762,43.58816582399999L71.42857142857143,50.84899862400002L95.23809523809524,50.31240163199999L119.04761904761905,59.469138144L142.85714285714286,58.759070976000004L166.66666666666669,83.524057056L190.47619047619048,183.966859872L214.28571428571428,180.827522496L238.0952380952381,170.434225728L261.9047619047619,183.665789568L285.7142857142857,176.21290108800002L309.5238095238095,200.445487776L333.33333333333337,193.680505728L357.14285714285717,189.743521824L380.95238095238096,186.301118304L404.76190476190476,176.875285824L428.57142857142856,169.858391328L452.3809523809524,161.610820416L476.1904761904762,153.808678656L500,57.26950646399999"/><path fill="none" stroke="#a6761d" stroke-width="2" d="M23.80952380952381,99.23973523199999L47.61904761904762,102.65534467200001L71.42857142857143,83.026673856L95.23809523809524,76.54721328L119.04761904761905,108.056627136L142.85714285714286,92.12866358400001L166.66666666666669,74.1043008L190.47619047619048,72.544592736L214.28571428571428,91.39752720000001L238.0952380952381,99.03447676799999L261.9047619047619,88.793482176L285.7142857142857,88.70568595200001L309.5238095238095,95.387850432L333.33333333333337,72.52608614399998L357.14285714285717,80.38906847999999L380.95238095238096,95.65390857599999L404.76190476190476,105.92887392L428.57142857142856,105.42502108800002L452.3809523809524,96.726018528L476.1904761904762,96.616335168L500,102.39351811200001"/><path fill="none" stroke="#666666" stroke-width="2" d="M23.80952380952381,104.205430944L47.61904761904762,64.26238377599998L71.42857142857143,66.58901193599999L95.23809523809524,80.327669472L119.04761904761905,82.05323759999999L142.85714285714286,90.452391552L166.66666666666669,80.55646099199998L190.47619047619048,82.05404313599999L214.28571428571428,98.58377519999999L238.0952380952381,126.40848767999998L261.9047619047619,128.2542984L285.7142857142857,127.859526432L309.5238095238095,121.276996704L333.33333333333337,122.173480512L357.14285714285717,122.24367763200001L380.95238095238096,101.90526883200002L404.76190476190476,77.08161283200002L428.57142857142856,83.912629536L452.3809523809524,95.77878681600001L476.1904761904762,105.52268563200002L500,106.28752291199999"/></g></svg>