<svg xmlns="http://www.w3.org/2000/svg" width="640" height="400"><g transform="translate(100,40)"><g class="axis" transform="translate(0, 288)" fill="none" font-size="10" font-family="sans-serif" text-anchor="middle"><path class="domain" stroke="#000" d="M0.5,6V0.5H500.5V6"/><g class="tick" opacity="1" transform="translate(0.5,0)"><line stroke="#000" y2="6"/><text fill="#000" y="9" dy="0.71em" font-size="29px" font-family="Microsoft YaHei" transform="translate(0, 5)">0</text></g><g class="tick" opacity="1" transform="translate(71.92857142857143,0)"><line stroke="#000" y2="6"/><text fill="#000" y="9" dy="0.71em" font-size="29px" font-family="Microsoft YaHei" transform="translate(0, 5)">1.02</text></g><g class="tick" opacity="1" transform="translate(143.35714285714286,0)"><line stroke="#000" y2="6"/><text fill="#000" y="9" dy="0.71em" font-size="29px" font-family="Microsoft YaHei" transform="translate(0, 5)">1.05</text></g><g class="tick" opacity="1" transform="translate(214.78571428571428,0)"><line stroke="#000" y2="6"/><text fill="#000" y="9" dy="0.71em" font-size="29px" font-family="Microsoft YaHei" transform="translate(0, 5)">1.08</text></g><g class="tick" opacity="1" transform="translate(286.2142857142857,0)"><line stroke="#000" y2="6"/><text fill="#000" y="9" dy="0.71em" font-size="29px" font-family="Microsoft YaHei" transform="translate(0, 5)">1.11</text></g><g class="tick" opacity="1" transform="translate(357.64285714285717,0)"><line stroke="#000" y2="6"/><text fill="#000" y="9" dy="0.71em" font-size="29px" font-family="Microsoft YaHei" transform="translate(0, 5)">1.14</text></g><g class="tick" opacity="1" transform="translate(429.07142857142856,0)"><line stroke="#000" y2="6"/><text fill="#000" y="9" dy="0.71em" font-size="29px" font-family="Microsoft YaHei" transform="translate(0, 5)">1.17</text></g><g class="tick" opacity="1" transform="translate(500.5,0)"><line stroke="#000" y2="6"/><text fill="#000" y="9" dy="0.71em" font-size="29px" font-family="Microsoft YaHei" transform="translate(0, 5)">1.2</text></g></g><g class="axis" fill="none" font-size="10" font-family="sans-serif" text-anchor="end"><path class="domain" stroke="#000" d="M-6,288.5H0.5V0.5H-6"/><g class="tick" opacity="1" transform="translate(0,288.5)"><line stroke="#000" x2="-6"/><text fill="#000" x="-9" dy="0.32em" font-size="29px" font-family="Microsoft YaHei" transform="translate(0, 5)">0</text></g><g class="tick" opacity="1" transform="translate(0,230.9)"><line stroke="#000" x2="-6"/><text fill="#000" x="-9" dy="0.32em" font-size="29px" font-family="Microsoft YaHei" transform="translate(0, 5)">0.2</text></g><g class="tick" opacity="1" transform="translate(0,173.3)"><line stroke="#000" x2="-6"/><text fill="#000" x="-9" dy="0.32em" font-size="29px" font-family="Microsoft YaHei" transform="translate(0, 5)">0.4</text></g><g class="tick" opacity="1" transform="translate(0,115.70000000000002)"><line stroke="#000" x2="-6"/><text fill="#000" x="-9" dy="0.32em" font-size="29px" font-family="Microsoft YaHei" transform="translate(0, 5)">0.6</text></g><g class="tick" opacity="1" transform="translate(0,58.099999999999994)"><line stroke="#000" x2="-6"/><text fill="#000" x="-9" dy="0.32em" font-size="29px" font-family="Microsoft YaHei" transform="translate(0, 5)">0.8</text></g><g class="tick" opacity="1" transform="translate(0,0.5)"><line stroke="#000" x2="-6"/><text fill="#000" x="-9" dy="0.32em" font-size="29px" font-family="Microsoft YaHei" transform="translate(0, 5)">1</text></g></g><text text-anchor="middle" x="250" y="358" font-size="29px" font-family="Microsoft YaHei">Growth Rate</text><text text-anchor="middle" transform="rotate(-90)" y="-70" x="-144" font-size="29px" font-family="Microsoft YaHei">Average Aspect Ratio</text><path fill="none" stroke="#1b9e77" stroke-width="2" d="M23.80952380952381,102.08107180799999L47.61904761904762,95.12245785600001L71.42857142857143,95.16563164800002L95.23809523809524,92.81080972800001L119.04761904761905,92.51481830399999L142.85714285714286,100.102656672L166.66666666666669,101.39993424L190.47619047619048,93.04878614399999L214.28571428571428,96.652363968L238.0952380952381,124.77964291199999L261.9047619047619,124.355369664L285.7142857142857,117.87700492799999L309.5238095238095,118.83255350399997L333.33333333333337,119.66238575999998L357.14285714285717,110.345843232L380.95238095238096,95.37852815999997L404.76190476190476,81.06408316800002L428.57142857142856,89.36596079999998L452.3809523809524,95.1990408L476.1904761904762,103.68269999999998L500,104.52334464"/><path fill="none" stroke="#d95f02" stroke-width="2" d="M23.80952380952381,77.38007471999998L47.61904761904762,80.655988608L71.42857142857143,81.374746464L95.23809523809524,92.69869593599998L119.04761904761905,112.076391744L142.85714285714286,116.521641504L166.66666666666669,130.112466336L190.47619047619048,168.024651264L214.28571428571428,181.241872704L238.0952380952381,197.43928128L261.9047619047619,215.510202144L285.7142857142857,231.86101104L309.5238095238095,253.302983424L333.33333333333337,262.127907936L357.14285714285717,272.119101696L380.95238095238096,277.424094816L404.76190476190476,282.54798432L428.57142857142856,283.79253168L452.3809523809524,285.067537344L476.1904761904762,286.285481568L500,286.936314336"/><path fill="none" stroke="#7570b3" stroke-width="2" d="M23.80952380952381,77.38007471999998L47.61904761904762,82.94416243199998L71.42857142857143,83.51654745600001L95.23809523809524,93.94904332799999L119.04761904761905,111.08400249600001L142.85714285714286,119.794783392L166.66666666666669,135.479312352L190.47619047619048,169.616526336L214.28571428571428,182.73368678399999L238.0952380952381,198.00688060800002L261.9047619047619,214.538674464L285.7142857142857,232.307379648L309.5238095238095,253.34293248L333.33333333333337,263.809562112L357.14285714285717,272.575919232L380.95238095238096,277.769055456L404.76190476190476,282.388832928L428.57142857142856,283.59946512L452.3809523809524,284.593741056L476.1904761904762,286.122841056L500,286.810619904"/><path fill="none" stroke="#e7298a" stroke-width="2" d="M23.80952380952381,196.721205408L47.61904761904762,198.530571168L71.42857142857143,197.853653376L95.23809523809524,211.38769555200003L119.04761904761905,223.593170688L142.85714285714286,228.24708912L166.66666666666669,229.627946592L190.47619047619048,236.31013584L214.28571428571428,252.505356192L238.0952380952381,259.198915104L261.9047619047619,263.224044576L285.7142857142857,272.068060608L309.5238095238095,273.17560751999997L333.33333333333337,275.527533024L357.14285714285717,281.053662624L380.95238095238096,281.30420448L404.76190476190476,284.442470208L428.57142857142856,284.806223424L452.3809523809524,285.6808872L476.1904761904762,286.614153216L500,287.022464352"/><path fill="none" stroke="#66a61e" stroke-width="2" d="M23.80952380952381,126.94574390400001L47.61904761904762,128.925329184L71.42857142857143,128.775378816L95.23809523809524,138.09754195200003L119.04761904761905,153.949173984L142.85714285714286,164.309123232L166.66666666666669,182.14768252800002L190.47619047619048,204.844105152L214.28571428571428,223.073011584L238.0952380952381,242.208858816L261.9047619047619,250.157385216L285.7142857142857,261.852845472L309.5238095238095,270.957619008L333.33333333333337,274.540192992L357.14285714285717,278.854714944L380.95238095238096,281.401651872L404.76190476190476,284.520637728L428.57142857142856,285.698505024L452.3809523809524,286.253539776L476.1904761904762,286.786951488L500,287.147174688"/><path fill="none" stroke="#e6ab02" stroke-width="2" d="M23.80952380952381,145.731586176L47.61904761904762,169.923161088L71.42857142857143,169.962250176L95.23809523809524,172.37921500800002L119.04761904761905,183.645885024L142.85714285714286,189.358447968L166.66666666666669,206.25988492800002L190.47619047619048,220.021259904L214.28571428571428,231.057045792L238.0952380952381,245.813657184L261.9047619047619,250.212469248L285.7142857142857,259.705243008L309.5238095238095,267.405136416L333.33333333333337,271.911128256L357.14285714285717,276.821133696L380.95238095238096,279.517525056L404.76190476190476,282.973352256L428.57142857142856,284.794519104L452.3809523809524,285.35833555199997L476.1904761904762,285.876451872L500,286.610839776"/><path fill="none" stroke="#a6761d" stroke-width="2" d="M23.80952380952381,122.475998016L47.61904761904762,109.85592816000002L71.42857142857143,105.77266934399998L95.23809523809524,121.470975936L119.04761904761905,133.54532006399998L142.85714285714286,131.395487328L166.66666666666669,142.65460368L190.47619047619048,166.1741424L214.28571428571428,185.801729184L238.0952380952381,203.035221216L261.9047619047619,220.54097923199998L285.7142857142857,237.020292864L309.5238095238095,253.58630025600002L333.33333333333337,264.966405408L357.14285714285717,269.706513024L380.95238095238096,274.351623552L404.76190476190476,280.829888064L428.57142857142856,282.9986928L452.3809523809524,284.282353728L476.1904761904762,284.059041984L500,285.644109024"/><path fill="none" stroke="#666666" stroke-width="2" d="M23.80952380952381,102.08107180799999L47.61904761904762,95.12245785600001L71.42857142857143,95.16563164800002L95.23809523809524,92.81080972800001L119.04761904761905,92.51481830399999L142.85714285714286,100.102656672L166.66666666666669,101.39993424L190.47619047619048,93.04878614399999L214.28571428571428,96.652363968L238.0952380952381,124.77964291199999L261.9047619047619,124.355369664L285.7142857142857,117.87700492799999L309.5238095238095,118.83255350399997L333.33333333333337,119.66238575999998L357.14285714285717,110.345843232L380.95238095238096,95.37852815999997L404.76190476190476,81.06408316800002L428.57142857142856,89.36596079999998L452.3809523809524,95.1990408L476.1904761904762,103.68269999999998L500,104.52334464"/></g></svg>