<svg xmlns="http://www.w3.org/2000/svg" width="640" height="400"><g transform="translate(100,40)"><g class="axis" transform="translate(0, 288)" fill="none" font-size="10" font-family="sans-serif" text-anchor="middle"><path class="domain" stroke="#000" d="M0.5,6V0.5H500.5V6"/><g class="tick" opacity="1" transform="translate(0.5,0)"><line stroke="#000" y2="6"/><text fill="#000" y="9" dy="0.71em" font-size="29px" font-family="Microsoft YaHei" transform="translate(0, 5)">0</text></g><g class="tick" opacity="1" transform="translate(71.92857142857143,0)"><line stroke="#000" y2="6"/><text fill="#000" y="9" dy="0.71em" font-size="29px" font-family="Microsoft YaHei" transform="translate(0, 5)">1.02</text></g><g class="tick" opacity="1" transform="translate(143.35714285714286,0)"><line stroke="#000" y2="6"/><text fill="#000" y="9" dy="0.71em" font-size="29px" font-family="Microsoft YaHei" transform="translate(0, 5)">1.05</text></g><g class="tick" opacity="1" transform="translate(214.78571428571428,0)"><line stroke="#000" y2="6"/><text fill="#000" y="9" dy="0.71em" font-size="29px" font-family="Microsoft YaHei" transform="translate(0, 5)">1.08</text></g><g class="tick" opacity="1" transform="translate(286.2142857142857,0)"><line stroke="#000" y2="6"/><text fill="#000" y="9" dy="0.71em" font-size="29px" font-family="Microsoft YaHei" transform="translate(0, 5)">1.11</text></g><g class="tick" opacity="1" transform="translate(357.64285714285717,0)"><line stroke="#000" y2="6"/><text fill="#000" y="9" dy="0.71em" font-size="29px" font-family="Microsoft YaHei" transform="translate(0, 5)">1.14</text></g><g class="tick" opacity="1" transform="translate(429.07142857142856,0)"><line stroke="#000" y2="6"/><text fill="#000" y="9" dy="0.71em" font-size="29px" font-family="Microsoft YaHei" transform="translate(0, 5)">1.17</text></g><g class="tick" opacity="1" transform="translate(500.5,0)"><line stroke="#000" y2="6"/><text fill="#000" y="9" dy="0.71em" font-size="29px" font-family="Microsoft YaHei" transform="translate(0, 5)">1.2</text></g></g><g class="axis" fill="none" font-size="10" font-family="sans-serif" text-anchor="end"><path class="domain" stroke="#000" d="M-6,288.5H0.5V0.5H-6"/><g class="tick" opacity="1" transform="translate(0,288.5)"><line stroke="#000" x2="-6"/><text fill="#000" x="-9" dy="0.32em" font-size="29px" font-family="Microsoft YaHei" transform="translate(0, 5)">0</text></g><g class="tick" opacity="1" transform="translate(0,230.9)"><line stroke="#000" x2="-6"/><text fill="#000" x="-9" dy="0.32em" font-size="29px" font-family="Microsoft YaHei" transform="translate(0, 5)">0.2</text></g><g class="tick" opacity="1" transform="translate(0,173.3)"><line stroke="#000" x2="-6"/><text fill="#000" x="-9" dy="0.32em" font-size="29px" font-family="Microsoft YaHei" transform="translate(0, 5)">0.4</text></g><g class="tick" opacity="1" transform="translate(0,115.70000000000002)"><line stroke="#000" x2="-6"/><text fill="#000" x="-9" dy="0.32em" font-size="29px" font-family="Microsoft YaHei" transform="translate(0, 5)">0.6</text></g><g class="tick" opacity="1" transform="translate(0,58.099999999999994)"><line stroke="#000" x2="-6"/><text fill="#000" x="-9" dy="0.32em" font-size="29px" font-family="Microsoft YaHei" transform="translate(0, 5)">0.8</text></g><g class="tick" opacity="1" transform="translate(0,0.5)"><line stroke="#000" x2="-6"/><text fill="#000" x="-9" dy="0.32em" font-size="29px" font-family="Microsoft YaHei" transform="translate(0, 5)">1</text></g></g><text text-anchor="middle" x="250" y="358" font-size="29px" font-family="Microsoft YaHei">Growth Rate</text><text text-anchor="middle" transform="rotate(-90)" y="-70" x="-144" font-size="29px" font-family="Microsoft YaHei">Median Aspect Ratio</text><path fill="none" stroke="#1b9e77" stroke-width="2" d="M23.80952380952381,104.205430944L47.61904761904762,64.21838371200002L71.42857142857143,66.89238191999999L95.23809523809524,79.47531907199999L119.04761904761905,84.50480476800001L142.85714285714286,86.086198368L166.66666666666669,81.16810790399998L190.47619047619048,79.73040556800001L214.28571428571428,96.14338012799999L238.0952380952381,126.500867712L261.9047619047619,127.789146144L285.7142857142857,118.36990368000002L309.5238095238095,121.81655952L333.33333333333337,121.25762438400002L357.14285714285717,117.646019136L380.95238095238096,96.611082624L404.76190476190476,79.68796185600002L428.57142857142856,89.37106156799999L452.3809523809524,97.84770739199999L476.1904761904762,106.98981839999999L500,107.13623587200001"/><path fill="none" stroke="#d95f02" stroke-width="2" d="M23.80952380952381,81.689710752L47.61904761904762,69.088127904L71.42857142857143,69.67177516800001L95.23809523809524,76.81552300800001L119.04761904761905,90.25404796800001L142.85714285714286,98.325708768L166.66666666666669,97.365004704L190.47619047619048,118.46336054400001L214.28571428571428,119.69419680000001L238.0952380952381,136.477631808L261.9047619047619,143.19339983999998L285.7142857142857,149.553006912L309.5238095238095,160.00772112L333.33333333333337,181.094171904L357.14285714285717,189.816536448L380.95238095238096,195.93749289599998L404.76190476190476,202.254350112L428.57142857142856,221.940463392L452.3809523809524,235.742058144L476.1904761904762,221.348424384L500,227.11660588799998"/><path fill="none" stroke="#7570b3" stroke-width="2" d="M23.80952380952381,81.689710752L47.61904761904762,75.755419488L71.42857142857143,75.195099072L95.23809523809524,82.12461926399999L119.04761904761905,90.273829248L142.85714285714286,101.23418995200001L166.66666666666669,98.035923744L190.47619047619048,121.80149712L214.28571428571428,121.40596339199999L238.0952380952381,123.50900073599999L261.9047619047619,138.208105152L285.7142857142857,150.323570784L309.5238095238095,163.98790675200001L333.33333333333337,178.45875360000002L357.14285714285717,184.29728255999999L380.95238095238096,192.775633344L404.76190476190476,195.229695744L428.57142857142856,207.366902208L452.3809523809524,219.481828992L476.1904761904762,221.899437504L500,220.99899052799998"/><path fill="none" stroke="#e7298a" stroke-width="2" d="M23.80952380952381,162.08724844800003L47.61904761904762,152.1706752L71.42857142857143,155.227199616L95.23809523809524,145.167087744L119.04761904761905,155.202730272L142.85714285714286,159.14656656L166.66666666666669,166.03241616L190.47619047619048,184.858282944L214.28571428571428,201.36719376L238.0952380952381,204.451784064L261.9047619047619,217.704451104L285.7142857142857,226.76122512L309.5238095238095,234.322041024L333.33333333333337,235.692121824L357.14285714285717,242.600923296L380.95238095238096,242.98079414400001L404.76190476190476,247.135247712L428.57142857142856,247.162394304L452.3809523809524,248.62102416L476.1904761904762,254.85179990400002L500,261.936838944"/><path fill="none" stroke="#66a61e" stroke-width="2" d="M23.80952380952381,76.91968799999998L47.61904761904762,84.721512096L71.42857142857143,82.96653974399999L95.23809523809524,104.144880672L119.04761904761905,119.09318976L142.85714285714286,116.838501984L166.66666666666669,126.363854592L190.47619047619048,146.001356064L214.28571428571428,157.05557539199998L238.0952380952381,170.127373536L261.9047619047619,171.902214432L285.7142857142857,181.763070336L309.5238095238095,194.215259232L333.33333333333337,206.470289952L357.14285714285717,214.451805024L380.95238095238096,224.380439712L404.76190476190476,230.728042944L428.57142857142856,236.35971216000002L452.3809523809524,241.655390208L476.1904761904762,248.0528736L500,252.653333184"/><path fill="none" stroke="#e6ab02" stroke-width="2" d="M23.80952380952381,62.487219167999996L47.61904761904762,101.829500064L71.42857142857143,99.40776163199999L95.23809523809524,125.26770268799999L119.04761904761905,129.815717184L142.85714285714286,128.95646544L166.66666666666669,129.777159456L190.47619047619048,127.12831862399997L214.28571428571428,138.113982432L238.0952380952381,142.09327382400002L261.9047619047619,149.806135584L285.7142857142857,144.671815008L309.5238095238095,151.90226726400002L333.33333333333337,150.89321865600002L357.14285714285717,159.130960704L380.95238095238096,166.06897113600002L404.76190476190476,186.12622454400002L428.57142857142856,196.58113487999998L452.3809523809524,203.357280672L476.1904761904762,210.333718944L500,217.546995456"/><path fill="none" stroke="#a6761d" stroke-width="2" d="M23.80952380952381,99.23973523199999L47.61904761904762,79.701722208L71.42857142857143,77.730765408L95.23809523809524,92.142338688L119.04761904761905,105.384595392L142.85714285714286,98.82363168L166.66666666666669,102.47932771200001L190.47619047619048,106.52952585599999L214.28571428571428,108.61928323200002L238.0952380952381,125.001477792L261.9047619047619,125.985197376L285.7142857142857,142.272815904L309.5238095238095,150.320300832L333.33333333333337,156.782213856L357.14285714285717,170.91627119999998L380.95238095238096,174.19460256000002L404.76190476190476,179.38741392L428.57142857142856,182.20381776L452.3809523809524,182.925858528L476.1904761904762,177.01852492799998L500,188.455528512"/><path fill="none" stroke="#666666" stroke-width="2" d="M23.80952380952381,104.205430944L47.61904761904762,64.21838371200002L71.42857142857143,66.89238191999999L95.23809523809524,79.47531907199999L119.04761904761905,84.50480476800001L142.85714285714286,86.086198368L166.66666666666669,81.16810790399998L190.47619047619048,79.73040556800001L214.28571428571428,96.14338012799999L238.0952380952381,126.500867712L261.9047619047619,127.789146144L285.7142857142857,118.36990368000002L309.5238095238095,121.81655952L333.33333333333337,121.25762438400002L357.14285714285717,117.646019136L380.95238095238096,96.611082624L404.76190476190476,79.68796185600002L428.57142857142856,89.37106156799999L452.3809523809524,97.84770739199999L476.1904761904762,106.98981839999999L500,107.13623587200001"/></g></svg>