<svg xmlns="http://www.w3.org/2000/svg" width="640" height="400"><g transform="translate(110,40)"><g class="axis" transform="translate(0, 288)" fill="none" font-size="10" font-family="sans-serif" text-anchor="middle"><path class="domain" stroke="#000" d="M0.5,6V0.5H490.5V6"/><g class="tick" opacity="1" transform="translate(61.75,0)"><line stroke="#000" y2="6"/><text fill="#000" y="9" dy="0.71em" font-size="29px" font-family="Microsoft YaHei" transform="translate(0, 5)">25</text></g><g class="tick" opacity="1" transform="translate(123,0)"><line stroke="#000" y2="6"/><text fill="#000" y="9" dy="0.71em" font-size="29px" font-family="Microsoft YaHei" transform="translate(0, 5)">50</text></g><g class="tick" opacity="1" transform="translate(184.25,0)"><line stroke="#000" y2="6"/><text fill="#000" y="9" dy="0.71em" font-size="29px" font-family="Microsoft YaHei" transform="translate(0, 5)">75</text></g><g class="tick" opacity="1" transform="translate(245.5,0)"><line stroke="#000" y2="6"/><text fill="#000" y="9" dy="0.71em" font-size="29px" font-family="Microsoft YaHei" transform="translate(0, 5)">100</text></g><g class="tick" opacity="1" transform="translate(306.75,0)"><line stroke="#000" y2="6"/><text fill="#000" y="9" dy="0.71em" font-size="29px" font-family="Microsoft YaHei" transform="translate(0, 5)">125</text></g><g class="tick" opacity="1" transform="translate(368,0)"><line stroke="#000" y2="6"/><text fill="#000" y="9" dy="0.71em" font-size="29px" font-family="Microsoft YaHei" transform="translate(0, 5)">150</text></g><g class="tick" opacity="1" transform="translate(429.25,0)"><line stroke="#000" y2="6"/><text fill="#000" y="9" dy="0.71em" font-size="29px" font-family="Microsoft YaHei" transform="translate(0, 5)">175</text></g><g class="tick" opacity="1" transform="translate(490.5,0)"><line stroke="#000" y2="6"/><text fill="#000" y="9" dy="0.71em" font-size="29px" font-family="Microsoft YaHei" transform="translate(0, 5)">200</text></g></g><g class="axis" fill="none" font-size="10" font-family="sans-serif" text-anchor="end"><path class="domain" stroke="#000" d="M-6,288.5H0.5V0.5H-6"/><g class="tick" opacity="1" transform="translate(0,288.5)"><line stroke="#000" x2="-6"/><text fill="#000" x="-9" dy="0.32em" font-size="29px" font-family="Microsoft YaHei" transform="translate(0, 5)">0.1</text></g><g class="tick" opacity="1" transform="translate(0,224.3769077993951)"><line stroke="#000" x2="-6"/><text fill="#000" x="-9" dy="0.32em" font-size="29px" font-family="Microsoft YaHei" transform="translate(0, 5)">1</text></g><g class="tick" opacity="1" transform="translate(0,160.25381559879023)"><line stroke="#000" x2="-6"/><text fill="#000" x="-9" dy="0.32em" font-size="29px" font-family="Microsoft YaHei" transform="translate(0, 5)">10</text></g><g class="tick" opacity="1" transform="translate(0,96.13072339818538)"><line stroke="#000" x2="-6"/><text fill="#000" x="-9" dy="0.32em" font-size="29px" font-family="Microsoft YaHei" transform="translate(0, 5)">100</text></g><g class="tick" opacity="1" transform="translate(0,32.00763119758045)"><line stroke="#000" x2="-6"/><text fill="#000" x="-9" dy="0.32em" font-size="29px" font-family="Microsoft YaHei" transform="translate(0, 5)">1000</text></g></g><text text-anchor="middle" x="245" y="358" font-size="29px" font-family="Microsoft YaHei">Number of Leaf Nodes</text><text text-anchor="middle" transform="rotate(-90)" y="-80" x="-144" font-size="29px" font-family="Microsoft YaHei">Running Time (ms)</text><path fill="none" stroke="#1b9e77" stroke-width="2" d="M61.25,147.57696685301954L122.5,123.57560224474273L183.75,99.236501633832L245,85.4049208150874L306.25,70.01538151425504L367.5,56.97451109690604L428.75,48.91260849947281L490,38.53595099761131"/><path fill="none" stroke="#d95f02" stroke-width="2" d="M61.25,239.49630028405699L122.5,233.65537186877174L183.75,221.64408407776534L245,212.1689400790736L306.25,198.8776264409992L367.5,194.62333767094924L428.75,187.18374190572948L490,171.4334017999151"/><path fill="none" stroke="#7570b3" stroke-width="2" d="M61.25,239.21664480644776L122.5,230.96983546304153L183.75,222.3547577252989L245,208.6530891077388L306.25,203.12504829152857L367.5,192.5039924506404L428.75,182.4745003545264L490,174.00828134701305"/><path fill="none" stroke="#e7298a" stroke-width="2" d="M61.25,237.6554650879419L122.5,232.25389629661004L183.75,219.51009449116646L245,204.7293422769444L306.25,200.7318512389083L367.5,195.4809245814991L428.75,188.64120029481302L490,181.7232392508277"/><path fill="none" stroke="#66a61e" stroke-width="2" d="M61.25,242.96019221763842L122.5,235.7862179121908L183.75,221.4193242755186L245,204.08957186564305L306.25,193.90362863474144L367.5,193.0163489589086L428.75,184.41975995597107L490,177.30419890898082"/><path fill="none" stroke="#e6ab02" stroke-width="2" d="M61.25,245.78608419216346L122.5,233.7397697420332L183.75,218.41513563013456L245,208.23262791796776L306.25,194.70733144560393L367.5,188.9041001128748L428.75,184.6500240622841L490,174.78393297950282"/><path fill="none" stroke="#a6761d" stroke-width="2" d="M61.25,242.85099385194016L122.5,234.94776707568008L183.75,219.0159926079483L245,208.90864234010817L306.25,200.4931931550845L367.5,191.0821696034426L428.75,183.5581053002537L490,174.23734894861852"/><path fill="none" stroke="#666666" stroke-width="2" d="M61.25,244.25353815934005L122.5,230.74583981900543L183.75,222.83425937591088L245,207.8700960025052L306.25,203.9651882198279L367.5,194.0310196602721L428.75,186.02969504376264L490,181.7424919587342"/></g></svg>