<svg xmlns="http://www.w3.org/2000/svg" width="640" height="400"><g transform="translate(60,40)"><g class="axis" transform="translate(0, 300)" fill="none" font-size="14px" font-family="sans-serif" text-anchor="middle"><path class="domain" stroke="#000" d="M0.5,6V0.5H540.5V6"/><g class="tick" opacity="1" transform="translate(26.214285714285715,0)"><line stroke="#000" y2="6"/><text fill="#000" y="9" dy="0.71em">1</text></g><g class="tick" opacity="1" transform="translate(77.64285714285714,0)"><line stroke="#000" y2="6"/><text fill="#000" y="9" dy="0.71em">1.02</text></g><g class="tick" opacity="1" transform="translate(129.07142857142858,0)"><line stroke="#000" y2="6"/><text fill="#000" y="9" dy="0.71em">1.04</text></g><g class="tick" opacity="1" transform="translate(180.5,0)"><line stroke="#000" y2="6"/><text fill="#000" y="9" dy="0.71em">1.06</text></g><g class="tick" opacity="1" transform="translate(231.92857142857144,0)"><line stroke="#000" y2="6"/><text fill="#000" y="9" dy="0.71em">1.08</text></g><g class="tick" opacity="1" transform="translate(283.3571428571429,0)"><line stroke="#000" y2="6"/><text fill="#000" y="9" dy="0.71em">1.1</text></g><g class="tick" opacity="1" transform="translate(334.7857142857143,0)"><line stroke="#000" y2="6"/><text fill="#000" y="9" dy="0.71em">1.12</text></g><g class="tick" opacity="1" transform="translate(386.2142857142857,0)"><line stroke="#000" y2="6"/><text fill="#000" y="9" dy="0.71em">1.14</text></g><g class="tick" opacity="1" transform="translate(437.64285714285717,0)"><line stroke="#000" y2="6"/><text fill="#000" y="9" dy="0.71em">1.16</text></g><g class="tick" opacity="1" transform="translate(489.0714285714286,0)"><line stroke="#000" y2="6"/><text fill="#000" y="9" dy="0.71em">1.18</text></g><g class="tick" opacity="1" transform="translate(540.5,0)"><line stroke="#000" y2="6"/><text fill="#000" y="9" dy="0.71em">1.2</text></g></g><g class="axis" fill="none" font-size="14px" font-family="sans-serif" text-anchor="end"><path class="domain" stroke="#000" d="M-6,300.5H0.5V0.5H-6"/><g class="tick" opacity="1" transform="translate(0,300.5)"><line stroke="#000" x2="-6"/><text fill="#000" x="-9" dy="0.32em">0.0</text></g><g class="tick" opacity="1" transform="translate(0,270.5)"><line stroke="#000" x2="-6"/><text fill="#000" x="-9" dy="0.32em">0.1</text></g><g class="tick" opacity="1" transform="translate(0,240.5)"><line stroke="#000" x2="-6"/><text fill="#000" x="-9" dy="0.32em">0.2</text></g><g class="tick" opacity="1" transform="translate(0,210.5)"><line stroke="#000" x2="-6"/><text fill="#000" x="-9" dy="0.32em">0.3</text></g><g class="tick" opacity="1" transform="translate(0,180.5)"><line stroke="#000" x2="-6"/><text fill="#000" x="-9" dy="0.32em">0.4</text></g><g class="tick" opacity="1" transform="translate(0,150.5)"><line stroke="#000" x2="-6"/><text fill="#000" x="-9" dy="0.32em">0.5</text></g><g class="tick" opacity="1" transform="translate(0,120.5)"><line stroke="#000" x2="-6"/><text fill="#000" x="-9" dy="0.32em">0.6</text></g><g class="tick" opacity="1" transform="translate(0,90.5)"><line stroke="#000" x2="-6"/><text fill="#000" x="-9" dy="0.32em">0.7</text></g><g class="tick" opacity="1" transform="translate(0,60.5)"><line stroke="#000" x2="-6"/><text fill="#000" x="-9" dy="0.32em">0.8</text></g><g class="tick" opacity="1" transform="translate(0,30.5)"><line stroke="#000" x2="-6"/><text fill="#000" x="-9" dy="0.32em">0.9</text></g><g class="tick" opacity="1" transform="translate(0,0.5)"><line stroke="#000" x2="-6"/><text fill="#000" x="-9" dy="0.32em">1.0</text></g></g><text text-anchor="middle" x="270" y="340" font-size="14px">Growth Rate</text><text text-anchor="middle" transform="rotate(-90)" y="-40" x="-150" font-size="14px">Average Aspect Ratio</text><path fill="none" stroke="#1b9e77" stroke-width="2" d="M25.714285714285715,95.75150159999998L51.42857142857143,99.05611829999998L77.14285714285714,99.11719830000001L102.85714285714286,96.9371898L128.57142857142858,93.43528199999997L154.28571428571428,103.66913010000002L180,105.62662139999998L205.71428571428572,95.92002870000002L231.42857142857144,102.34742549999999L257.14285714285717,129.72056819999997L282.8571428571429,130.2855048L308.57142857142856,119.2583553L334.2857142857143,124.08363750000001L360,125.19177660000003L385.7142857142857,124.35653489999999L411.42857142857144,100.6608252L437.14285714285717,82.37672520000001L462.8571428571429,91.15666890000003L488.5714285714286,97.4727378L514.2857142857143,106.35079289999999L540,109.8965322"/><path fill="none" stroke="#d95f02" stroke-width="2" d="M25.714285714285715,92.46849749999998L51.42857142857143,93.3251352L77.14285714285714,90.66755429999998L102.85714285714286,116.2320273L128.57142857142858,105.97790310000002L154.28571428571428,110.8629795L180,122.87609040000001L205.71428571428572,111.018699L231.42857142857144,117.98147550000002L257.14285714285717,125.24530920000001L282.8571428571429,116.04708960000002L308.57142857142856,110.9924991L334.2857142857143,113.5138131L360,110.01047189999997L385.7142857142857,96.49063799999999L411.42857142857144,109.1592765L437.14285714285717,105.16899210000003L462.8571428571429,104.7526887L488.5714285714286,82.9230804L514.2857142857143,80.6491311L540,81.60380789999999"/><path fill="none" stroke="#7570b3" stroke-width="2" d="M25.714285714285715,92.46849749999998L51.42857142857143,98.5579659L77.14285714285714,93.54079379999999L102.85714285714286,118.15884929999999L128.57142857142858,113.62892579999999L154.28571428571428,115.10971799999999L180,121.48385040000002L205.71428571428572,110.9581044L231.42857142857144,109.283466L257.14285714285717,111.3109359L282.8571428571429,113.8971099L308.57142857142856,107.36463750000001L334.2857142857143,81.7395396L360,88.4138868L385.7142857142857,117.48645449999998L411.42857142857144,103.84341270000002L437.14285714285717,115.83125339999998L462.8571428571429,104.6957763L488.5714285714286,98.15018039999998L514.2857142857143,90.5168703L540,84.8161068"/><path fill="none" stroke="#e7298a" stroke-width="2" d="M25.714285714285715,204.9179223L51.42857142857143,198.5374824L77.14285714285714,199.13412119999998L102.85714285714286,174.10732860000002L128.57142857142858,151.0872804L154.28571428571428,139.53506399999998L180,137.2499256L205.71428571428572,112.67465010000001L231.42857142857144,120.7817856L257.14285714285717,115.58723640000002L282.8571428571429,104.70781110000001L308.57142857142856,124.75344000000001L334.2857142857143,152.3092803L360,154.7550861L385.7142857142857,169.0395786L411.42857142857144,179.16527309999998L437.14285714285717,191.05529489999998L462.8571428571429,201.860277L488.5714285714286,211.5180669L514.2857142857143,216.6301575L540,225.1174437"/><path fill="none" stroke="#66a61e" stroke-width="2" d="M25.714285714285715,132.2351499L51.42857142857143,129.09140069999998L77.14285714285714,129.8109498L102.85714285714286,141.76993890000003L128.57142857142858,133.1090232L154.28571428571428,118.1208666L180,116.09759069999998L205.71428571428572,127.9749567L231.42857142857144,142.0389396L257.14285714285717,150.0575184L282.8571428571429,153.112071L308.57142857142856,160.3909677L334.2857142857143,169.35178679999999L360,183.1824231L385.7142857142857,199.1441592L411.42857142857144,206.5101669L437.14285714285717,223.1446581L462.8571428571429,235.4551194L488.5714285714286,245.7822021L514.2857142857143,252.2840391L540,261.5375709"/><path fill="none" stroke="#e6ab02" stroke-width="2" d="M25.714285714285715,151.8037356L51.42857142857143,288.0407931L77.14285714285714,288.2154573L102.85714285714286,285.5943582L128.57142857142858,283.1603475L154.28571428571428,281.5865733L180,279.2493471L205.71428571428572,276.2274729L231.42857142857144,273.0626982L257.14285714285717,270.1746243L282.8571428571429,268.5337566L308.57142857142856,265.6164672L334.2857142857143,262.61919539999997L360,260.4231561L385.7142857142857,257.5080102L411.42857142857144,255.4586919L437.14285714285717,251.5716429L462.8571428571429,249.4088343L488.5714285714286,247.8040041L514.2857142857143,245.3947404L540,242.2400343"/><path fill="none" stroke="#a6761d" stroke-width="2" d="M25.714285714285715,131.19464490000001L51.42857142857143,104.89029L77.14285714285714,94.48881089999998L102.85714285714286,124.284975L128.57142857142858,117.2095071L154.28571428571428,122.4479373L180,109.10515140000001L205.71428571428572,88.0176645L231.42857142857144,104.6001714L257.14285714285717,113.48504010000002L282.8571428571429,106.31521619999998L308.57142857142856,110.46891120000001L334.2857142857143,70.0099353L360,67.49190870000001L385.7142857142857,74.68403850000001L411.42857142857144,72.27467010000001L437.14285714285717,78.49112729999999L462.8571428571429,91.7927013L488.5714285714286,97.84089990000001L514.2857142857143,100.43265179999997L540,92.18584349999998"/><path fill="none" stroke="#666666" stroke-width="2" d="M25.714285714285715,95.75150159999998L51.42857142857143,99.05611829999998L77.14285714285714,99.11719830000001L102.85714285714286,96.9371898L128.57142857142858,93.43528199999997L154.28571428571428,103.66913010000002L180,105.62662139999998L205.71428571428572,95.92002870000002L231.42857142857144,102.34742549999999L257.14285714285717,129.72056819999997L282.8571428571429,130.2855048L308.57142857142856,119.2583553L334.2857142857143,124.08363750000001L360,125.19177660000003L385.7142857142857,124.35653489999999L411.42857142857144,100.6608252L437.14285714285717,82.37672520000001L462.8571428571429,91.15666890000003L488.5714285714286,97.4727378L514.2857142857143,106.35079289999999L540,109.8965322"/></g></svg>