<svg xmlns="http://www.w3.org/2000/svg" width="640" height="400"><g transform="translate(60,40)"><g class="axis" transform="translate(0, 300)" fill="none" font-size="14px" font-family="sans-serif" text-anchor="middle"><path class="domain" stroke="#000" d="M0.5,6V0.5H540.5V6"/><g class="tick" opacity="1" transform="translate(26.214285714285715,0)"><line stroke="#000" y2="6"/><text fill="#000" y="9" dy="0.71em">1</text></g><g class="tick" opacity="1" transform="translate(77.64285714285714,0)"><line stroke="#000" y2="6"/><text fill="#000" y="9" dy="0.71em">1.02</text></g><g class="tick" opacity="1" transform="translate(129.07142857142858,0)"><line stroke="#000" y2="6"/><text fill="#000" y="9" dy="0.71em">1.04</text></g><g class="tick" opacity="1" transform="translate(180.5,0)"><line stroke="#000" y2="6"/><text fill="#000" y="9" dy="0.71em">1.06</text></g><g class="tick" opacity="1" transform="translate(231.92857142857144,0)"><line stroke="#000" y2="6"/><text fill="#000" y="9" dy="0.71em">1.08</text></g><g class="tick" opacity="1" transform="translate(283.3571428571429,0)"><line stroke="#000" y2="6"/><text fill="#000" y="9" dy="0.71em">1.1</text></g><g class="tick" opacity="1" transform="translate(334.7857142857143,0)"><line stroke="#000" y2="6"/><text fill="#000" y="9" dy="0.71em">1.12</text></g><g class="tick" opacity="1" transform="translate(386.2142857142857,0)"><line stroke="#000" y2="6"/><text fill="#000" y="9" dy="0.71em">1.14</text></g><g class="tick" opacity="1" transform="translate(437.64285714285717,0)"><line stroke="#000" y2="6"/><text fill="#000" y="9" dy="0.71em">1.16</text></g><g class="tick" opacity="1" transform="translate(489.0714285714286,0)"><line stroke="#000" y2="6"/><text fill="#000" y="9" dy="0.71em">1.18</text></g><g class="tick" opacity="1" transform="translate(540.5,0)"><line stroke="#000" y2="6"/><text fill="#000" y="9" dy="0.71em">1.2</text></g></g><g class="axis" fill="none" font-size="14px" font-family="sans-serif" text-anchor="end"><path class="domain" stroke="#000" d="M-6,300.5H0.5V0.5H-6"/><g class="tick" opacity="1" transform="translate(0,300.5)"><line stroke="#000" x2="-6"/><text fill="#000" x="-9" dy="0.32em">0.0</text></g><g class="tick" opacity="1" transform="translate(0,270.5)"><line stroke="#000" x2="-6"/><text fill="#000" x="-9" dy="0.32em">0.1</text></g><g class="tick" opacity="1" transform="translate(0,240.5)"><line stroke="#000" x2="-6"/><text fill="#000" x="-9" dy="0.32em">0.2</text></g><g class="tick" opacity="1" transform="translate(0,210.5)"><line stroke="#000" x2="-6"/><text fill="#000" x="-9" dy="0.32em">0.3</text></g><g class="tick" opacity="1" transform="translate(0,180.5)"><line stroke="#000" x2="-6"/><text fill="#000" x="-9" dy="0.32em">0.4</text></g><g class="tick" opacity="1" transform="translate(0,150.5)"><line stroke="#000" x2="-6"/><text fill="#000" x="-9" dy="0.32em">0.5</text></g><g class="tick" opacity="1" transform="translate(0,120.5)"><line stroke="#000" x2="-6"/><text fill="#000" x="-9" dy="0.32em">0.6</text></g><g class="tick" opacity="1" transform="translate(0,90.5)"><line stroke="#000" x2="-6"/><text fill="#000" x="-9" dy="0.32em">0.7</text></g><g class="tick" opacity="1" transform="translate(0,60.5)"><line stroke="#000" x2="-6"/><text fill="#000" x="-9" dy="0.32em">0.8</text></g><g class="tick" opacity="1" transform="translate(0,30.5)"><line stroke="#000" x2="-6"/><text fill="#000" x="-9" dy="0.32em">0.9</text></g><g class="tick" opacity="1" transform="translate(0,0.5)"><line stroke="#000" x2="-6"/><text fill="#000" x="-9" dy="0.32em">1.0</text></g></g><text text-anchor="middle" x="270" y="340" font-size="14px">Growth Rate</text><text text-anchor="middle" transform="rotate(-90)" y="-40" x="-150" font-size="14px">Median Aspect Ratio</text><path fill="none" stroke="#1b9e77" stroke-width="2" d="M25.714285714285715,85.09344870000001L51.42857142857143,79.8714531L77.14285714285714,80.86215960000001L102.85714285714286,120.5243715L128.57142857142858,95.43658680000001L154.28571428571428,107.71561439999999L180,118.63474260000001L205.71428571428572,110.79146880000002L231.42857142857144,111.8829777L257.14285714285717,116.3603421L282.8571428571429,105.8007273L308.57142857142856,112.58861820000001L334.2857142857143,106.4830662L360,117.13668659999999L385.7142857142857,85.02237360000001L411.42857142857144,112.3158129L437.14285714285717,103.9766697L462.8571428571429,99.36687180000001L488.5714285714286,82.27926929999998L514.2857142857143,77.4559236L540,74.8501479"/><path fill="none" stroke="#d95f02" stroke-width="2" d="M25.714285714285715,85.09344870000001L51.42857142857143,79.8714531L77.14285714285714,80.86215960000001L102.85714285714286,120.5243715L128.57142857142858,95.43658680000001L154.28571428571428,107.71561439999999L180,118.63474260000001L205.71428571428572,110.79146880000002L231.42857142857144,111.8829777L257.14285714285717,116.3603421L282.8571428571429,105.8007273L308.57142857142856,112.58861820000001L334.2857142857143,106.4830662L360,117.13668659999999L385.7142857142857,85.02237360000001L411.42857142857144,112.3158129L437.14285714285717,103.9766697L462.8571428571429,99.36687180000001L488.5714285714286,82.27926929999998L514.2857142857143,77.4559236L540,74.8501479"/><path fill="none" stroke="#7570b3" stroke-width="2" d="M25.714285714285715,85.09344870000001L51.42857142857143,91.39120500000001L77.14285714285714,86.50686089999999L102.85714285714286,122.67837360000001L128.57142857142858,114.1826706L154.28571428571428,104.73494670000002L180,121.90625879999999L205.71428571428572,121.2998226L231.42857142857144,112.48817250000002L257.14285714285717,93.02480159999999L282.8571428571429,113.11789200000001L308.57142857142856,103.60222949999999L334.2857142857143,80.0007828L360,91.5837606L385.7142857142857,120.52082190000002L411.42857142857144,103.40048040000002L437.14285714285717,98.72092709999998L462.8571428571429,99.53369219999999L488.5714285714286,95.00393430000003L514.2857142857143,86.9297817L540,79.1541336"/><path fill="none" stroke="#e7298a" stroke-width="2" d="M25.714285714285715,168.8408838L51.42857142857143,159.88666650000002L77.14285714285714,161.90866259999999L102.85714285714286,120.7806378L128.57142857142858,92.72164140000001L154.28571428571428,73.30533510000001L180,70.5166122L205.71428571428572,64.00232249999999L231.42857142857144,86.86096620000001L257.14285714285717,81.8409354L282.8571428571429,89.44009559999998L308.57142857142856,103.4319246L334.2857142857143,110.38180350000002L360,115.2895326L385.7142857142857,134.0371134L411.42857142857144,146.7619839L437.14285714285717,154.3184874L462.8571428571429,155.8407594L488.5714285714286,167.8479492L514.2857142857143,164.9165604L540,165.8659032"/><path fill="none" stroke="#66a61e" stroke-width="2" d="M25.714285714285715,80.124675L51.42857142857143,71.56245239999998L77.14285714285714,73.4902581L102.85714285714286,71.43478859999999L128.57142857142858,63.9721893L154.28571428571428,57.21342899999999L180,60.8380176L205.71428571428572,84.535236L231.42857142857144,92.41679099999999L257.14285714285717,108.82066500000002L282.8571428571429,109.82741490000001L308.57142857142856,103.18184790000001L334.2857142857143,125.56991310000001L360,128.3219172L385.7142857142857,133.1614806L411.42857142857144,138.9709533L437.14285714285717,152.7407373L462.8571428571429,181.85230769999998L488.5714285714286,187.4068224L514.2857142857143,175.4547555L540,187.07520929999998"/><path fill="none" stroke="#e6ab02" stroke-width="2" d="M25.714285714285715,65.09085329999999L51.42857142857143,289.0148724L77.14285714285714,289.0903314L102.85714285714286,287.4875199L128.57142857142858,285.8374962L154.28571428571428,284.1769725L180,282.2593209L205.71428571428572,279.9899751L231.42857142857144,277.3235334L257.14285714285717,273.8917539L282.8571428571429,272.4925452L308.57142857142856,269.6014176L334.2857142857143,266.5275168L360,263.6644305L385.7142857142857,260.5432305L411.42857142857144,259.1573427L437.14285714285717,255.3811575L462.8571428571429,253.6970265L488.5714285714286,250.8896244L514.2857142857143,248.4720555L540,246.4103049"/><path fill="none" stroke="#a6761d" stroke-width="2" d="M25.714285714285715,102.057861L51.42857142857143,73.2467847L77.14285714285714,63.40970970000001L102.85714285714286,112.80733949999998L128.57142857142858,101.95490849999999L154.28571428571428,97.73782770000003L180,71.0458635L205.71428571428572,66.11786760000001L231.42857142857144,88.81908089999999L257.14285714285717,100.491411L282.8571428571429,84.26921279999999L308.57142857142856,96.33396210000001L334.2857142857143,55.57403579999999L360,64.23865889999999L385.7142857142857,63.59802959999999L411.42857142857144,67.43830469999997L437.14285714285717,70.34266680000002L462.8571428571429,82.8459996L488.5714285714286,95.9319102L514.2857142857143,95.07383490000001L540,86.80485630000001"/><path fill="none" stroke="#666666" stroke-width="2" d="M25.714285714285715,96.88312110000001L51.42857142857143,66.8226831L77.14285714285714,69.2883219L102.85714285714286,82.9406481L128.57142857142858,84.93164189999999L154.28571428571428,94.77429330000001L180,84.89980979999999L205.71428571428572,84.8302314L231.42857142857144,101.5880487L257.14285714285717,133.2276852L282.8571428571429,135.47609189999997L308.57142857142856,116.18387820000001L334.2857142857143,127.1047269L360,127.57899090000001L385.7142857142857,127.42179089999999L411.42857142857144,102.95883599999999L437.14285714285717,83.08778009999997L462.8571428571429,87.4779279L488.5714285714286,100.9646349L514.2857142857143,110.0693019L540,114.47173469999998"/></g></svg>