<svg xmlns="http://www.w3.org/2000/svg" width="640" height="400"><g transform="translate(60,40)"><g class="axis" transform="translate(0, 300)" fill="none" font-size="14px" font-family="sans-serif" text-anchor="middle"><path class="domain" stroke="#000" d="M0.5,6V0.5H540.5V6"/><g class="tick" opacity="1" transform="translate(60.5,0)"><line stroke="#000" y2="6"/><text fill="#000" y="9" dy="0.71em">1</text></g><g class="tick" opacity="1" transform="translate(120.5,0)"><line stroke="#000" y2="6"/><text fill="#000" y="9" dy="0.71em">2</text></g><g class="tick" opacity="1" transform="translate(180.5,0)"><line stroke="#000" y2="6"/><text fill="#000" y="9" dy="0.71em">3</text></g><g class="tick" opacity="1" transform="translate(240.5,0)"><line stroke="#000" y2="6"/><text fill="#000" y="9" dy="0.71em">4</text></g><g class="tick" opacity="1" transform="translate(300.5,0)"><line stroke="#000" y2="6"/><text fill="#000" y="9" dy="0.71em">5</text></g><g class="tick" opacity="1" transform="translate(360.5,0)"><line stroke="#000" y2="6"/><text fill="#000" y="9" dy="0.71em">6</text></g><g class="tick" opacity="1" transform="translate(420.5,0)"><line stroke="#000" y2="6"/><text fill="#000" y="9" dy="0.71em">7</text></g><g class="tick" opacity="1" transform="translate(480.5,0)"><line stroke="#000" y2="6"/><text fill="#000" y="9" dy="0.71em">8</text></g><g class="tick" opacity="1" transform="translate(540.5,0)"><line stroke="#000" y2="6"/><text fill="#000" y="9" dy="0.71em">9</text></g></g><g class="axis" fill="none" font-size="14px" font-family="sans-serif" text-anchor="end"><path class="domain" stroke="#000" d="M-6,300.5H0.5V0.5H-6"/><g class="tick" opacity="1" transform="translate(0,300.5)"><line stroke="#000" x2="-6"/><text fill="#000" x="-9" dy="0.32em">1</text></g><g class="tick" opacity="1" transform="translate(0,200.5)"><line stroke="#000" x2="-6"/><text fill="#000" x="-9" dy="0.32em">10</text></g><g class="tick" opacity="1" transform="translate(0,100.49999999999997)"><line stroke="#000" x2="-6"/><text fill="#000" x="-9" dy="0.32em">100</text></g><g class="tick" opacity="1" transform="translate(0,0.5)"><line stroke="#000" x2="-6"/><text fill="#000" x="-9" dy="0.32em">1000</text></g></g><text text-anchor="middle" x="270" y="340" font-size="14px">Depth</text><text text-anchor="middle" transform="rotate(-90)" y="-40" x="-150" font-size="14px">Running Time (ms)</text><path fill="none" stroke="#1b9e77" stroke-width="2" d="M60,80.79746100323104L120,119.97838861099078L180,118.79248382771047L240,128.2930020443121L300,147.41710598477033L360,151.85342957372976L420,160.17592162873478L480,152.23292762068291L540,158.90656057588723"/><path fill="none" stroke="#d95f02" stroke-width="2" d="M60,245.41117386113962L120,275.4786012325225L180,280.28904359000353L240,271.44584428912174L300,280.817465873792L360,284.40933769454494L420,285.271332455794L480,285.821170294507L540,281.491702914123"/><path fill="none" stroke="#7570b3" stroke-width="2" d="M60,260.06759311285106L120,271.20259296551376L180,282.1489234650945L240,274.25086199966313L300,278.37496231129666L360,282.4566471068348L420,285.47041247950796L480,286.718338718075L540,285.9862931198149"/><path fill="none" stroke="#e7298a" stroke-width="2" d="M60,270.6321508778679L120,273.7774422228728L180,282.0606215064571L240,276.91884664185113L300,284.08510616581066L360,281.575444657471L420,277.69247989748794L480,286.4657410832627L540,284.79992415277076"/><path fill="none" stroke="#66a61e" stroke-width="2" d="M60,264.4067899312297L120,276.31152404583213L180,278.9689507872396L240,276.0805665405466L300,278.82015698802365L360,283.76477147915256L420,277.65014631429017L480,280.86132681113696L540,281.6471080834633"/><path fill="none" stroke="#e6ab02" stroke-width="2" d="M60,267.51457229005024L120,279.6901810454243L180,271.68661878926633L240,275.41247489887877L300,283.4114946420546L360,283.56620175689403L420,285.27349819672526L480,286.52747901911465L540,286.2968880697718"/><path fill="none" stroke="#a6761d" stroke-width="2" d="M60,270.34203610167464L120,280.79150543015055L180,277.9039856770076L240,279.49472865346934L300,283.9396429396134L360,284.2927224811822L420,284.3302474925795L480,286.1523618775254L540,278.76791968580244"/><path fill="none" stroke="#666666" stroke-width="2" d="M60,280.47924504972457L120,284.7797299592636L180,286.33079640751924L240,282.69303363627324L300,275.1975210230652L360,278.85884240623136L420,285.9796887175935L480,284.91944554126235L540,288.89358549690485"/></g></svg>