<svg xmlns="http://www.w3.org/2000/svg" width="640" height="400"><g transform="translate(60,40)"><g class="axis" transform="translate(0, 300)" fill="none" font-size="14px" font-family="sans-serif" text-anchor="middle"><path class="domain" stroke="#000" d="M0.5,6V0.5H540.5V6"/><g class="tick" opacity="1" transform="translate(26.214285714285715,0)"><line stroke="#000" y2="6"/><text fill="#000" y="9" dy="0.71em">1</text></g><g class="tick" opacity="1" transform="translate(77.64285714285714,0)"><line stroke="#000" y2="6"/><text fill="#000" y="9" dy="0.71em">1.02</text></g><g class="tick" opacity="1" transform="translate(129.07142857142858,0)"><line stroke="#000" y2="6"/><text fill="#000" y="9" dy="0.71em">1.04</text></g><g class="tick" opacity="1" transform="translate(180.5,0)"><line stroke="#000" y2="6"/><text fill="#000" y="9" dy="0.71em">1.06</text></g><g class="tick" opacity="1" transform="translate(231.92857142857144,0)"><line stroke="#000" y2="6"/><text fill="#000" y="9" dy="0.71em">1.08</text></g><g class="tick" opacity="1" transform="translate(283.3571428571429,0)"><line stroke="#000" y2="6"/><text fill="#000" y="9" dy="0.71em">1.1</text></g><g class="tick" opacity="1" transform="translate(334.7857142857143,0)"><line stroke="#000" y2="6"/><text fill="#000" y="9" dy="0.71em">1.12</text></g><g class="tick" opacity="1" transform="translate(386.2142857142857,0)"><line stroke="#000" y2="6"/><text fill="#000" y="9" dy="0.71em">1.14</text></g><g class="tick" opacity="1" transform="translate(437.64285714285717,0)"><line stroke="#000" y2="6"/><text fill="#000" y="9" dy="0.71em">1.16</text></g><g class="tick" opacity="1" transform="translate(489.0714285714286,0)"><line stroke="#000" y2="6"/><text fill="#000" y="9" dy="0.71em">1.18</text></g><g class="tick" opacity="1" transform="translate(540.5,0)"><line stroke="#000" y2="6"/><text fill="#000" y="9" dy="0.71em">1.2</text></g></g><g class="axis" fill="none" font-size="14px" font-family="sans-serif" text-anchor="end"><path class="domain" stroke="#000" d="M-6,300.5H0.5V0.5H-6"/><g class="tick" opacity="1" transform="translate(0,300.5)"><line stroke="#000" x2="-6"/><text fill="#000" x="-9" dy="0.32em">0.0</text></g><g class="tick" opacity="1" transform="translate(0,270.5)"><line stroke="#000" x2="-6"/><text fill="#000" x="-9" dy="0.32em">0.1</text></g><g class="tick" opacity="1" transform="translate(0,240.5)"><line stroke="#000" x2="-6"/><text fill="#000" x="-9" dy="0.32em">0.2</text></g><g class="tick" opacity="1" transform="translate(0,210.5)"><line stroke="#000" x2="-6"/><text fill="#000" x="-9" dy="0.32em">0.3</text></g><g class="tick" opacity="1" transform="translate(0,180.5)"><line stroke="#000" x2="-6"/><text fill="#000" x="-9" dy="0.32em">0.4</text></g><g class="tick" opacity="1" transform="translate(0,150.5)"><line stroke="#000" x2="-6"/><text fill="#000" x="-9" dy="0.32em">0.5</text></g><g class="tick" opacity="1" transform="translate(0,120.5)"><line stroke="#000" x2="-6"/><text fill="#000" x="-9" dy="0.32em">0.6</text></g><g class="tick" opacity="1" transform="translate(0,90.5)"><line stroke="#000" x2="-6"/><text fill="#000" x="-9" dy="0.32em">0.7</text></g><g class="tick" opacity="1" transform="translate(0,60.5)"><line stroke="#000" x2="-6"/><text fill="#000" x="-9" dy="0.32em">0.8</text></g><g class="tick" opacity="1" transform="translate(0,30.5)"><line stroke="#000" x2="-6"/><text fill="#000" x="-9" dy="0.32em">0.9</text></g><g class="tick" opacity="1" transform="translate(0,0.5)"><line stroke="#000" x2="-6"/><text fill="#000" x="-9" dy="0.32em">1.0</text></g></g><text text-anchor="middle" x="270" y="340" font-size="14px">Growth Rate</text><text text-anchor="middle" transform="rotate(-90)" y="-40" x="-150" font-size="14px">Average Aspect Ratio</text><path fill="none" stroke="#1b9e77" stroke-width="2" d="M25.714285714285715,106.33444979999999L51.42857142857143,99.0568965L77.14285714285714,99.12090749999999L102.85714285714286,96.97319580000001L128.57142857142858,93.4450152L154.28571428571428,103.50045599999999L180,105.94473389999999L205.71428571428572,96.5842398L231.42857142857144,103.07533949999998L257.14285714285717,129.3928332L282.8571428571429,129.9871899L308.57142857142856,127.99351379999999L334.2857142857143,123.28149239999999L360,125.0538981L385.7142857142857,124.16949360000001L411.42857142857144,104.12315279999999L437.14285714285717,80.81454389999999L462.8571428571429,89.47862759999998L488.5714285714286,95.50999110000001L514.2857142857143,104.43091800000002L540,108.5856762"/><path fill="none" stroke="#d95f02" stroke-width="2" d="M25.714285714285715,80.6042445L51.42857142857143,93.8242257L77.14285714285714,93.2454342L102.85714285714286,113.36142959999998L128.57142857142858,120.8975379L154.28571428571428,119.0197719L180,122.50318710000002L205.71428571428572,113.8851234L231.42857142857144,108.5640765L257.14285714285717,106.1346699L282.8571428571429,105.42307829999999L308.57142857142856,100.29372270000002L334.2857142857143,120.60896550000001L360,111.2611803L385.7142857142857,104.52276479999998L411.42857142857144,101.9213526L437.14285714285717,96.3487992L462.8571428571429,94.87679460000001L488.5714285714286,93.6210192L514.2857142857143,87.47633250000001L540,77.0814627"/><path fill="none" stroke="#7570b3" stroke-width="2" d="M25.714285714285715,80.6042445L51.42857142857143,99.55392570000001L77.14285714285714,99.98568660000001L102.85714285714286,114.97398389999998L128.57142857142858,114.6036612L154.28571428571428,115.0843404L180,122.32184369999999L205.71428571428572,109.25126130000001L231.42857142857144,115.7534565L257.14285714285717,108.19705349999998L282.8571428571429,99.90146340000001L308.57142857142856,110.16026969999999L334.2857142857143,117.60413159999999L360,116.2270479L385.7142857142857,112.8586923L411.42857142857144,111.27315390000001L437.14285714285717,107.58131039999998L462.8571428571429,107.24497740000001L488.5714285714286,108.08389290000002L514.2857142857143,108.30553800000001L540,89.17485870000002"/><path fill="none" stroke="#e7298a" stroke-width="2" d="M25.714285714285715,204.9179223L51.42857142857143,220.04429040000002L77.14285714285714,211.1640624L102.85714285714286,228.2929725L128.57142857142858,238.55236200000002L154.28571428571428,244.7110791L180,254.5414032L205.71428571428572,262.6831404L231.42857142857144,269.3460225L257.14285714285717,278.1697554L282.8571428571429,283.957179L308.57142857142856,293.1442596L334.2857142857143,295.8268143L360,296.332233L385.7142857142857,298.2256026L411.42857142857144,298.4758596L437.14285714285717,298.9543596L462.8571428571429,299.1258027L488.5714285714286,298.9354719L514.2857142857143,298.8048753L540,299.1045"/><path fill="none" stroke="#66a61e" stroke-width="2" d="M25.714285714285715,132.2351499L51.42857142857143,125.6923956L77.14285714285714,130.50121560000002L102.85714285714286,123.85293419999999L128.57142857142858,121.7647182L154.28571428571428,118.15154189999998L180,113.8224204L205.71428571428572,148.55154929999998L231.42857142857144,175.9915893L257.14285714285717,185.8689426L282.8571428571429,236.5621362L308.57142857142856,174.48310830000003L334.2857142857143,185.7123138L360,183.7605873L385.7142857142857,228.6919557L411.42857142857144,239.3733777L437.14285714285717,207.88495799999998L462.8571428571429,221.5152198L488.5714285714286,233.745675L514.2857142857143,242.2209588L540,253.45905390000001"/><path fill="none" stroke="#e6ab02" stroke-width="2" d="M25.714285714285715,151.8037356L51.42857142857143,154.8542547L77.14285714285714,155.6345784L102.85714285714286,158.23609530000002L128.57142857142858,162.5262741L154.28571428571428,157.5502047L180,166.1422662L205.71428571428572,169.5923391L231.42857142857144,162.9706308L257.14285714285717,171.0056271L282.8571428571429,177.9701796L308.57142857142856,169.02656430000002L334.2857142857143,190.7512323L360,184.3138419L385.7142857142857,174.34794870000002L411.42857142857144,169.2022758L437.14285714285717,160.6126704L462.8571428571429,156.1687179L488.5714285714286,152.9885922L514.2857142857143,148.4227962L540,133.0795428"/><path fill="none" stroke="#a6761d" stroke-width="2" d="M25.714285714285715,127.57916459999998L51.42857142857143,140.35253909999997L77.14285714285714,134.3379357L102.85714285714286,139.9020378L128.57142857142858,141.1111185L154.28571428571428,143.7066453L180,135.7650684L205.71428571428572,131.2198401L231.42857142857144,127.88446139999999L257.14285714285717,138.54671069999998L282.8571428571429,118.88803050000001L308.57142857142856,112.64371080000001L334.2857142857143,120.7458555L360,95.90789579999998L385.7142857142857,106.57020689999999L411.42857142857144,115.59609360000002L437.14285714285717,118.88446169999997L462.8571428571429,124.4102814L488.5714285714286,107.16064800000001L514.2857142857143,112.789896L540,112.62717749999999"/><path fill="none" stroke="#666666" stroke-width="2" d="M25.714285714285715,106.33444979999999L51.42857142857143,99.0568965L77.14285714285714,99.12090749999999L102.85714285714286,96.97319580000001L128.57142857142858,93.4450152L154.28571428571428,103.50045599999999L180,105.94473389999999L205.71428571428572,96.5842398L231.42857142857144,103.07533949999998L257.14285714285717,129.3928332L282.8571428571429,129.9871899L308.57142857142856,127.99351379999999L334.2857142857143,123.28149239999999L360,125.0538981L385.7142857142857,124.16949360000001L411.42857142857144,104.12315279999999L437.14285714285717,80.81454389999999L462.8571428571429,89.47862759999998L488.5714285714286,95.50999110000001L514.2857142857143,104.43091800000002L540,108.5856762"/></g></svg>