<svg xmlns="http://www.w3.org/2000/svg" width="640" height="400"><g transform="translate(60,40)"><g class="axis" transform="translate(0, 300)" fill="none" font-size="14px" font-family="sans-serif" text-anchor="middle"><path class="domain" stroke="#000" d="M0.5,6V0.5H540.5V6"/><g class="tick" opacity="1" transform="translate(26.214285714285715,0)"><line stroke="#000" y2="6"/><text fill="#000" y="9" dy="0.71em">1</text></g><g class="tick" opacity="1" transform="translate(77.64285714285714,0)"><line stroke="#000" y2="6"/><text fill="#000" y="9" dy="0.71em">1.02</text></g><g class="tick" opacity="1" transform="translate(129.07142857142858,0)"><line stroke="#000" y2="6"/><text fill="#000" y="9" dy="0.71em">1.04</text></g><g class="tick" opacity="1" transform="translate(180.5,0)"><line stroke="#000" y2="6"/><text fill="#000" y="9" dy="0.71em">1.06</text></g><g class="tick" opacity="1" transform="translate(231.92857142857144,0)"><line stroke="#000" y2="6"/><text fill="#000" y="9" dy="0.71em">1.08</text></g><g class="tick" opacity="1" transform="translate(283.3571428571429,0)"><line stroke="#000" y2="6"/><text fill="#000" y="9" dy="0.71em">1.1</text></g><g class="tick" opacity="1" transform="translate(334.7857142857143,0)"><line stroke="#000" y2="6"/><text fill="#000" y="9" dy="0.71em">1.12</text></g><g class="tick" opacity="1" transform="translate(386.2142857142857,0)"><line stroke="#000" y2="6"/><text fill="#000" y="9" dy="0.71em">1.14</text></g><g class="tick" opacity="1" transform="translate(437.64285714285717,0)"><line stroke="#000" y2="6"/><text fill="#000" y="9" dy="0.71em">1.16</text></g><g class="tick" opacity="1" transform="translate(489.0714285714286,0)"><line stroke="#000" y2="6"/><text fill="#000" y="9" dy="0.71em">1.18</text></g><g class="tick" opacity="1" transform="translate(540.5,0)"><line stroke="#000" y2="6"/><text fill="#000" y="9" dy="0.71em">1.2</text></g></g><g class="axis" fill="none" font-size="14px" font-family="sans-serif" text-anchor="end"><path class="domain" stroke="#000" d="M-6,300.5H0.5V0.5H-6"/><g class="tick" opacity="1" transform="translate(0,300.5)"><line stroke="#000" x2="-6"/><text fill="#000" x="-9" dy="0.32em">0.0</text></g><g class="tick" opacity="1" transform="translate(0,270.5)"><line stroke="#000" x2="-6"/><text fill="#000" x="-9" dy="0.32em">0.1</text></g><g class="tick" opacity="1" transform="translate(0,240.5)"><line stroke="#000" x2="-6"/><text fill="#000" x="-9" dy="0.32em">0.2</text></g><g class="tick" opacity="1" transform="translate(0,210.5)"><line stroke="#000" x2="-6"/><text fill="#000" x="-9" dy="0.32em">0.3</text></g><g class="tick" opacity="1" transform="translate(0,180.5)"><line stroke="#000" x2="-6"/><text fill="#000" x="-9" dy="0.32em">0.4</text></g><g class="tick" opacity="1" transform="translate(0,150.5)"><line stroke="#000" x2="-6"/><text fill="#000" x="-9" dy="0.32em">0.5</text></g><g class="tick" opacity="1" transform="translate(0,120.5)"><line stroke="#000" x2="-6"/><text fill="#000" x="-9" dy="0.32em">0.6</text></g><g class="tick" opacity="1" transform="translate(0,90.5)"><line stroke="#000" x2="-6"/><text fill="#000" x="-9" dy="0.32em">0.7</text></g><g class="tick" opacity="1" transform="translate(0,60.5)"><line stroke="#000" x2="-6"/><text fill="#000" x="-9" dy="0.32em">0.8</text></g><g class="tick" opacity="1" transform="translate(0,30.5)"><line stroke="#000" x2="-6"/><text fill="#000" x="-9" dy="0.32em">0.9</text></g><g class="tick" opacity="1" transform="translate(0,0.5)"><line stroke="#000" x2="-6"/><text fill="#000" x="-9" dy="0.32em">1.0</text></g></g><text text-anchor="middle" x="270" y="340" font-size="14px">Growth Rate</text><text text-anchor="middle" transform="rotate(-90)" y="-40" x="-150" font-size="14px">Median Aspect Ratio</text><path fill="none" stroke="#1b9e77" stroke-width="2" d="M25.714285714285715,108.54732390000001L51.42857142857143,66.93998309999998L77.14285714285714,69.36355409999999L102.85714285714286,83.67465569999999L128.57142857142858,85.47212250000001L154.28571428571428,94.22124120000001L180,83.91298019999999L205.71428571428572,85.47296159999999L231.42857142857144,102.69143249999999L257.14285714285717,131.67550799999998L282.8571428571429,133.5982275L308.57142857142856,133.18700669999998L334.2857142857143,126.33020490000001L360,127.2640422L385.7142857142857,127.33716420000002L411.42857142857144,106.15132170000001L437.14285714285717,80.2933467L462.8571428571429,87.40898909999999L488.5714285714286,99.76956959999998L514.2857142857143,109.91946420000002L540,110.7161697"/><path fill="none" stroke="#d95f02" stroke-width="2" d="M25.714285714285715,85.09344870000001L51.42857142857143,78.66591209999999L77.14285714285714,77.3267916L102.85714285714286,114.26375580000001L128.57142857142858,109.4375091L154.28571428571428,124.80851309999997L180,117.8429595L205.71428571428572,111.52184789999998L231.42857142857144,105.90249689999999L257.14285714285717,105.38130570000001L282.8571428571429,102.699231L308.57142857142856,98.86246829999999L334.2857142857143,124.47778889999998L360,90.18574319999999L385.7142857142857,99.55805279999998L411.42857142857144,98.0152041L437.14285714285717,104.0358228L462.8571428571429,95.10782549999999L488.5714285714286,89.6332554L514.2857142857143,80.90957879999999L540,71.83067309999998"/><path fill="none" stroke="#7570b3" stroke-width="2" d="M25.714285714285715,85.09344870000001L51.42857142857143,93.0980688L77.14285714285714,93.19762259999999L102.85714285714286,114.5618895L128.57142857142858,101.70223200000001L154.28571428571428,94.5572295L180,126.5195841L205.71428571428572,116.11841099999998L231.42857142857144,114.55989360000001L257.14285714285717,105.80980739999998L282.8571428571429,90.7825425L308.57142857142856,109.18362719999999L334.2857142857143,114.7419759L360,96.08607989999999L385.7142857142857,112.3408575L411.42857142857144,114.35574210000001L437.14285714285717,109.91526809999999L462.8571428571429,110.7471051L488.5714285714286,116.40334469999999L514.2857142857143,114.99079470000001L540,85.77489749999998"/><path fill="none" stroke="#e7298a" stroke-width="2" d="M25.714285714285715,168.8408838L51.42857142857143,164.2902783L77.14285714285714,170.751594L102.85714285714286,178.02004349999999L128.57142857142858,205.2789714L154.28571428571428,212.3263305L180,211.9064472L205.71428571428572,228.5089029L231.42857142857144,246.1401306L257.14285714285717,258.2826138L282.8571428571429,264.7615467L308.57142857142856,273.4666824L334.2857142857143,277.7150601L360,280.5455439L385.7142857142857,286.5498354L411.42857142857144,288.4364448L437.14285714285717,290.0957574L462.8571428571429,291.212886L488.5714285714286,292.235433L514.2857142857143,291.924624L540,292.5723984"/><path fill="none" stroke="#66a61e" stroke-width="2" d="M25.714285714285715,80.124675L51.42857142857143,99.05121209999999L77.14285714285714,99.0163326L102.85714285714286,85.89623939999998L128.57142857142858,110.7978606L154.28571428571428,107.41746839999999L180,80.72765520000002L205.71428571428572,120.2514969L231.42857142857144,126.07944420000001L257.14285714285717,137.70827789999998L282.8571428571429,130.1723088L308.57142857142856,134.71029629999998L334.2857142857143,134.417199L360,132.50263410000002L385.7142857142857,133.3246371L411.42857142857144,129.3220827L437.14285714285717,130.7315583L462.8571428571429,129.9439596L488.5714285714286,134.0925555L514.2857142857143,140.8740927L540,150.8972739"/><path fill="none" stroke="#e6ab02" stroke-width="2" d="M25.714285714285715,65.09085329999999L51.42857142857143,45.4043394L77.14285714285714,52.967706900000024L102.85714285714286,52.40875169999998L128.57142857142858,61.94701889999999L154.28571428571428,61.2073656L180,87.00422609999998L205.71428571428572,191.63214570000002L231.42857142857144,188.36200259999998L257.14285714285717,177.5356518L282.8571428571429,191.31853080000002L308.57142857142856,183.5551053L334.2857142857143,208.7973831L360,201.7505268L385.7142857142857,197.64950190000002L411.42857142857144,194.0636649L437.14285714285717,184.24508939999998L462.8571428571429,176.9358243L488.5714285714286,168.3446046L514.2857142857143,160.2173736L540,59.655735899999996"/><path fill="none" stroke="#a6761d" stroke-width="2" d="M25.714285714285715,103.3747242L51.42857142857143,106.93265070000001L77.14285714285714,86.4861186L102.85714285714286,79.7366805L128.57142857142858,112.5589866L154.28571428571428,95.9673579L180,77.19198000000003L205.71428571428572,75.56728410000002L231.42857142857144,95.2057575L257.14285714285717,103.1609133L282.8571428571429,92.4932106L308.57142857142856,92.4017562L334.2857142857143,99.3623442L360,75.54800639999999L385.7142857142857,83.73861299999999L411.42857142857144,99.6394881L437.14285714285717,110.342577L462.8571428571429,109.81773030000002L488.5714285714286,100.75626930000001L514.2857142857143,100.6420158L540,106.6599147"/><path fill="none" stroke="#666666" stroke-width="2" d="M25.714285714285715,108.54732390000001L51.42857142857143,66.93998309999998L77.14285714285714,69.36355409999999L102.85714285714286,83.67465569999999L128.57142857142858,85.47212250000001L154.28571428571428,94.22124120000001L180,83.91298019999999L205.71428571428572,85.47296159999999L231.42857142857144,102.69143249999999L257.14285714285717,131.67550799999998L282.8571428571429,133.5982275L308.57142857142856,133.18700669999998L334.2857142857143,126.33020490000001L360,127.2640422L385.7142857142857,127.33716420000002L411.42857142857144,106.15132170000001L437.14285714285717,80.2933467L462.8571428571429,87.40898909999999L488.5714285714286,99.76956959999998L514.2857142857143,109.91946420000002L540,110.7161697"/></g></svg>