<svg xmlns="http://www.w3.org/2000/svg" width="640" height="400"><g transform="translate(60,40)"><g class="axis" transform="translate(0, 300)" fill="none" font-size="14px" font-family="sans-serif" text-anchor="middle"><path class="domain" stroke="#000" d="M0.5,6V0.5H540.5V6"/><g class="tick" opacity="1" transform="translate(26.214285714285715,0)"><line stroke="#000" y2="6"/><text fill="#000" y="9" dy="0.71em">1</text></g><g class="tick" opacity="1" transform="translate(77.64285714285714,0)"><line stroke="#000" y2="6"/><text fill="#000" y="9" dy="0.71em">1.02</text></g><g class="tick" opacity="1" transform="translate(129.07142857142858,0)"><line stroke="#000" y2="6"/><text fill="#000" y="9" dy="0.71em">1.04</text></g><g class="tick" opacity="1" transform="translate(180.5,0)"><line stroke="#000" y2="6"/><text fill="#000" y="9" dy="0.71em">1.06</text></g><g class="tick" opacity="1" transform="translate(231.92857142857144,0)"><line stroke="#000" y2="6"/><text fill="#000" y="9" dy="0.71em">1.08</text></g><g class="tick" opacity="1" transform="translate(283.3571428571429,0)"><line stroke="#000" y2="6"/><text fill="#000" y="9" dy="0.71em">1.1</text></g><g class="tick" opacity="1" transform="translate(334.7857142857143,0)"><line stroke="#000" y2="6"/><text fill="#000" y="9" dy="0.71em">1.12</text></g><g class="tick" opacity="1" transform="translate(386.2142857142857,0)"><line stroke="#000" y2="6"/><text fill="#000" y="9" dy="0.71em">1.14</text></g><g class="tick" opacity="1" transform="translate(437.64285714285717,0)"><line stroke="#000" y2="6"/><text fill="#000" y="9" dy="0.71em">1.16</text></g><g class="tick" opacity="1" transform="translate(489.0714285714286,0)"><line stroke="#000" y2="6"/><text fill="#000" y="9" dy="0.71em">1.18</text></g><g class="tick" opacity="1" transform="translate(540.5,0)"><line stroke="#000" y2="6"/><text fill="#000" y="9" dy="0.71em">1.2</text></g></g><g class="axis" fill="none" font-size="14px" font-family="sans-serif" text-anchor="end"><path class="domain" stroke="#000" d="M-6,300.5H0.5V0.5H-6"/><g class="tick" opacity="1" transform="translate(0,300.5)"><line stroke="#000" x2="-6"/><text fill="#000" x="-9" dy="0.32em">0.0</text></g><g class="tick" opacity="1" transform="translate(0,270.5)"><line stroke="#000" x2="-6"/><text fill="#000" x="-9" dy="0.32em">0.1</text></g><g class="tick" opacity="1" transform="translate(0,240.5)"><line stroke="#000" x2="-6"/><text fill="#000" x="-9" dy="0.32em">0.2</text></g><g class="tick" opacity="1" transform="translate(0,210.5)"><line stroke="#000" x2="-6"/><text fill="#000" x="-9" dy="0.32em">0.3</text></g><g class="tick" opacity="1" transform="translate(0,180.5)"><line stroke="#000" x2="-6"/><text fill="#000" x="-9" dy="0.32em">0.4</text></g><g class="tick" opacity="1" transform="translate(0,150.5)"><line stroke="#000" x2="-6"/><text fill="#000" x="-9" dy="0.32em">0.5</text></g><g class="tick" opacity="1" transform="translate(0,120.5)"><line stroke="#000" x2="-6"/><text fill="#000" x="-9" dy="0.32em">0.6</text></g><g class="tick" opacity="1" transform="translate(0,90.5)"><line stroke="#000" x2="-6"/><text fill="#000" x="-9" dy="0.32em">0.7</text></g><g class="tick" opacity="1" transform="translate(0,60.5)"><line stroke="#000" x2="-6"/><text fill="#000" x="-9" dy="0.32em">0.8</text></g><g class="tick" opacity="1" transform="translate(0,30.5)"><line stroke="#000" x2="-6"/><text fill="#000" x="-9" dy="0.32em">0.9</text></g><g class="tick" opacity="1" transform="translate(0,0.5)"><line stroke="#000" x2="-6"/><text fill="#000" x="-9" dy="0.32em">1.0</text></g></g><text text-anchor="middle" x="270" y="340" font-size="14px">Growth Rate</text><text text-anchor="middle" transform="rotate(-90)" y="-40" x="-150" font-size="14px">Average Aspect Ratio</text><path fill="none" stroke="#1b9e77" stroke-width="2" d="M25.714285714285715,106.33444979999999L51.42857142857143,99.08589360000002L77.14285714285714,99.13086630000001L102.85714285714286,96.6779268L128.57142857142858,96.36960239999999L154.28571428571428,104.2736007L180,105.62493149999997L205.71428571428572,96.9258189L231.42857142857144,100.6795458L257.14285714285717,129.9787947L282.8571428571429,129.5368434L308.57142857142856,122.7885468L334.2857142857143,123.7839099L360,124.64831849999999L385.7142857142857,114.9435867L411.42857142857144,99.3526335L437.14285714285717,84.44175330000002L462.8571428571429,93.0895425L488.5714285714286,99.16566750000001L514.2857142857143,108.00281249999998L540,108.87848399999999"/><path fill="none" stroke="#d95f02" stroke-width="2" d="M25.714285714285715,80.6042445L51.42857142857143,84.0166548L77.14285714285714,84.76536090000002L102.85714285714286,96.56114159999998L128.57142857142858,116.7462414L154.28571428571428,121.37670990000001L180,135.53381910000002L205.71428571428572,175.0256784L231.42857142857144,188.79361740000002L257.14285714285717,205.66591799999998L282.8571428571429,224.4897939L308.57142857142856,241.5218865L334.2857142857143,263.8572744L360,273.0499041L385.7142857142857,283.4573976L411.42857142857144,288.9834321L437.14285714285717,294.320817L462.8571428571429,295.6172205L488.5714285714286,296.9453514L514.2857142857143,298.2140433L540,298.8919941"/><path fill="none" stroke="#7570b3" stroke-width="2" d="M25.714285714285715,80.6042445L51.42857142857143,86.4001692L77.14285714285714,86.99640360000001L102.85714285714286,97.86358679999998L128.57142857142858,115.71250260000002L154.28571428571428,124.7862327L180,141.1242837L205.71428571428572,176.6838816L231.42857142857144,190.3475904L257.14285714285717,206.2571673L282.8571428571429,223.4777859L308.57142857142856,241.9868538L334.2857142857143,263.898888L360,274.8016272L385.7142857142857,283.9332492L411.42857142857144,289.3427661L437.14285714285717,294.1550343L462.8571428571429,295.4161095L488.5714285714286,296.4518136L514.2857142857143,298.0446261L540,298.7610624"/><path fill="none" stroke="#e7298a" stroke-width="2" d="M25.714285714285715,204.9179223L51.42857142857143,206.8026783L77.14285714285714,206.09755560000002L102.85714285714286,220.19551620000001L128.57142857142858,232.9095528L154.28571428571428,237.7573845L180,239.1957777L205.71428571428572,246.1563915L231.42857142857144,263.0264127L257.14285714285717,269.9988699L282.8571428571429,274.1917131L308.57142857142856,283.4042298L334.2857142857143,284.5579245L360,287.0078469L385.7142857142857,292.7642319L411.42857142857144,293.025213L437.14285714285717,296.2942398L462.8571428571429,296.6731494L488.5714285714286,297.5842575L514.2857142857143,298.5564096L540,298.9817337"/><path fill="none" stroke="#66a61e" stroke-width="2" d="M25.714285714285715,132.2351499L51.42857142857143,134.2972179L77.14285714285714,134.14101960000002L102.85714285714286,143.85160620000002L128.57142857142858,160.3637229L154.28571428571428,171.1553367L180,189.7371693L205.71428571428572,213.3792762L231.42857142857144,232.3677204L257.14285714285717,252.3008946L282.8571428571429,260.5806096L308.57142857142856,272.76338069999997L334.2857142857143,282.2475198L360,285.9793677L385.7142857142857,290.4736614L411.42857142857144,293.1267207L437.14285714285717,296.3756643L462.8571428571429,297.6026094L488.5714285714286,298.1807706L514.2857142857143,298.7364078L540,299.1116403"/><path fill="none" stroke="#e6ab02" stroke-width="2" d="M25.714285714285715,151.8037356L51.42857142857143,177.0032928L77.14285714285714,177.0440106L102.85714285714286,179.5616823L128.57142857142858,191.29779689999998L154.28571428571428,197.2483833L180,214.8540468L205.71428571428572,229.18881240000002L231.42857142857144,240.6844227L257.14285714285717,256.0558929L282.8571428571429,260.6379888L308.57142857142856,270.5262948L334.2857142857143,278.5470171L360,283.2407586L385.7142857142857,288.3553476L411.42857142857144,291.1640886L437.14285714285717,294.7639086L462.8571428571429,296.6609574L488.5714285714286,297.2482662L514.2857142857143,297.7879707L540,298.5529581"/><path fill="none" stroke="#a6761d" stroke-width="2" d="M25.714285714285715,127.57916459999998L51.42857142857143,114.43325850000002L77.14285714285714,110.17986389999999L102.85714285714286,126.53226660000001L128.57142857142858,139.1097084L154.28571428571428,136.8702993L180,148.5985455L205.71428571428572,173.09806500000002L231.42857142857144,193.5434679L257.14285714285717,211.4950221L282.8571428571429,229.7301867L308.57142857142856,246.8961384L334.2857142857143,264.15239610000003L360,276.0066723L385.7142857142857,280.9442844L411.42857142857144,285.7829412L437.14285714285717,292.5311334L462.8571428571429,294.790305L488.5714285714286,296.1274518L514.2857142857143,295.8948354L540,297.5459469"/><path fill="none" stroke="#666666" stroke-width="2" d="M25.714285714285715,106.33444979999999L51.42857142857143,99.08589360000002L77.14285714285714,99.13086630000001L102.85714285714286,96.6779268L128.57142857142858,96.36960239999999L154.28571428571428,104.2736007L180,105.62493149999997L205.71428571428572,96.9258189L231.42857142857144,100.6795458L257.14285714285717,129.9787947L282.8571428571429,129.5368434L308.57142857142856,122.7885468L334.2857142857143,123.7839099L360,124.64831849999999L385.7142857142857,114.9435867L411.42857142857144,99.3526335L437.14285714285717,84.44175330000002L462.8571428571429,93.0895425L488.5714285714286,99.16566750000001L514.2857142857143,108.00281249999998L540,108.87848399999999"/></g></svg>