<svg xmlns="http://www.w3.org/2000/svg" width="640" height="400"><g transform="translate(60,40)"><g class="axis" transform="translate(0, 300)" fill="none" font-size="14px" font-family="sans-serif" text-anchor="middle"><path class="domain" stroke="#000" d="M0.5,6V0.5H540.5V6"/><g class="tick" opacity="1" transform="translate(26.214285714285715,0)"><line stroke="#000" y2="6"/><text fill="#000" y="9" dy="0.71em">1</text></g><g class="tick" opacity="1" transform="translate(77.64285714285714,0)"><line stroke="#000" y2="6"/><text fill="#000" y="9" dy="0.71em">1.02</text></g><g class="tick" opacity="1" transform="translate(129.07142857142858,0)"><line stroke="#000" y2="6"/><text fill="#000" y="9" dy="0.71em">1.04</text></g><g class="tick" opacity="1" transform="translate(180.5,0)"><line stroke="#000" y2="6"/><text fill="#000" y="9" dy="0.71em">1.06</text></g><g class="tick" opacity="1" transform="translate(231.92857142857144,0)"><line stroke="#000" y2="6"/><text fill="#000" y="9" dy="0.71em">1.08</text></g><g class="tick" opacity="1" transform="translate(283.3571428571429,0)"><line stroke="#000" y2="6"/><text fill="#000" y="9" dy="0.71em">1.1</text></g><g class="tick" opacity="1" transform="translate(334.7857142857143,0)"><line stroke="#000" y2="6"/><text fill="#000" y="9" dy="0.71em">1.12</text></g><g class="tick" opacity="1" transform="translate(386.2142857142857,0)"><line stroke="#000" y2="6"/><text fill="#000" y="9" dy="0.71em">1.14</text></g><g class="tick" opacity="1" transform="translate(437.64285714285717,0)"><line stroke="#000" y2="6"/><text fill="#000" y="9" dy="0.71em">1.16</text></g><g class="tick" opacity="1" transform="translate(489.0714285714286,0)"><line stroke="#000" y2="6"/><text fill="#000" y="9" dy="0.71em">1.18</text></g><g class="tick" opacity="1" transform="translate(540.5,0)"><line stroke="#000" y2="6"/><text fill="#000" y="9" dy="0.71em">1.2</text></g></g><g class="axis" fill="none" font-size="14px" font-family="sans-serif" text-anchor="end"><path class="domain" stroke="#000" d="M-6,300.5H0.5V0.5H-6"/><g class="tick" opacity="1" transform="translate(0,300.5)"><line stroke="#000" x2="-6"/><text fill="#000" x="-9" dy="0.32em">0.0</text></g><g class="tick" opacity="1" transform="translate(0,270.5)"><line stroke="#000" x2="-6"/><text fill="#000" x="-9" dy="0.32em">0.1</text></g><g class="tick" opacity="1" transform="translate(0,240.5)"><line stroke="#000" x2="-6"/><text fill="#000" x="-9" dy="0.32em">0.2</text></g><g class="tick" opacity="1" transform="translate(0,210.5)"><line stroke="#000" x2="-6"/><text fill="#000" x="-9" dy="0.32em">0.3</text></g><g class="tick" opacity="1" transform="translate(0,180.5)"><line stroke="#000" x2="-6"/><text fill="#000" x="-9" dy="0.32em">0.4</text></g><g class="tick" opacity="1" transform="translate(0,150.5)"><line stroke="#000" x2="-6"/><text fill="#000" x="-9" dy="0.32em">0.5</text></g><g class="tick" opacity="1" transform="translate(0,120.5)"><line stroke="#000" x2="-6"/><text fill="#000" x="-9" dy="0.32em">0.6</text></g><g class="tick" opacity="1" transform="translate(0,90.5)"><line stroke="#000" x2="-6"/><text fill="#000" x="-9" dy="0.32em">0.7</text></g><g class="tick" opacity="1" transform="translate(0,60.5)"><line stroke="#000" x2="-6"/><text fill="#000" x="-9" dy="0.32em">0.8</text></g><g class="tick" opacity="1" transform="translate(0,30.5)"><line stroke="#000" x2="-6"/><text fill="#000" x="-9" dy="0.32em">0.9</text></g><g class="tick" opacity="1" transform="translate(0,0.5)"><line stroke="#000" x2="-6"/><text fill="#000" x="-9" dy="0.32em">1.0</text></g></g><text text-anchor="middle" x="270" y="340" font-size="14px">Growth Rate</text><text text-anchor="middle" transform="rotate(-90)" y="-40" x="-150" font-size="14px">Median Aspect Ratio</text><path fill="none" stroke="#1b9e77" stroke-width="2" d="M25.714285714285715,108.54732390000001L51.42857142857143,66.89414970000001L77.14285714285714,69.6795645L102.85714285714286,82.78679069999998L128.57142857142858,88.0258383L154.28571428571428,89.67312330000001L180,84.55011239999999L205.71428571428572,83.0525058L231.42857142857144,100.1493543L257.14285714285717,131.7717372L282.8571428571429,133.11369390000002L308.57142857142856,123.301983L334.2857142857143,126.89224949999999L360,126.3100254L385.7142857142857,122.54793659999999L411.42857142857144,100.63654439999999L437.14285714285717,83.0082936L462.8571428571429,93.0948558L488.5714285714286,101.9246952L514.2857142857143,111.44772750000001L540,111.60024570000002"/><path fill="none" stroke="#d95f02" stroke-width="2" d="M25.714285714285715,85.09344870000001L51.42857142857143,71.96679990000001L77.14285714285714,72.5747658L102.85714285714286,80.0161698L128.57142857142858,94.01463330000001L154.28571428571428,102.42261330000002L180,101.4218799L205.71428571428572,123.39933390000002L231.42857142857144,124.681455L257.14285714285717,142.1641998L282.8571428571429,149.15979149999998L308.57142857142856,155.7843822L334.2857142857143,166.6747095L360,188.6397624L385.7142857142857,197.7255588L411.42857142857144,204.10155509999998L437.14285714285717,210.6816147L462.8571428571429,231.1879827L488.5714285714286,245.5646439L514.2857142857143,230.5712754L540,236.5797978"/><path fill="none" stroke="#7570b3" stroke-width="2" d="M25.714285714285715,85.09344870000001L51.42857142857143,78.91189530000003L77.14285714285714,78.32822820000001L102.85714285714286,85.54647839999998L128.57142857142858,94.0352388L154.28571428571428,105.45228120000002L180,102.12075390000001L205.71428571428572,126.87655949999998L231.42857142857144,126.4645452L257.14285714285717,128.6552091L282.8571428571429,143.96677620000003L308.57142857142856,156.5870529L334.2857142857143,170.8207362L360,185.89453500000002L385.7142857142857,191.976336L411.42857142857144,200.80795139999998L437.14285714285717,203.36426640000002L462.8571428571429,216.0071898L488.5714285714286,228.6269052L514.2857142857143,231.14524740000002L540,230.2072818"/><path fill="none" stroke="#e7298a" stroke-width="2" d="M25.714285714285715,168.8408838L51.42857142857143,158.51112L77.14285714285714,161.6949996L102.85714285714286,151.21571640000002L128.57142857142858,161.6695107L154.28571428571428,165.7776735L180,172.9504335L205.71428571428572,192.5607114L231.42857142857144,209.7574935L257.14285714285717,212.9706084L282.8571428571429,226.77546990000002L308.57142857142856,236.2096095L334.2857142857143,244.0854594L360,245.5126269L385.7142857142857,252.7092951L411.42857142857144,253.1049939L437.14285714285717,257.4325497L462.8571428571429,257.46082739999997L488.5714285714286,258.9802335L514.2857142857143,265.4706249L540,272.8508739"/><path fill="none" stroke="#66a61e" stroke-width="2" d="M25.714285714285715,80.124675L51.42857142857143,88.2515751L77.14285714285714,86.42347889999999L102.85714285714286,108.48425069999999L128.57142857142858,124.055406L154.28571428571428,121.7067729L180,131.6290152L205.71428571428572,152.0847459L231.42857142857144,163.5995577L257.14285714285717,177.2160141L282.8571428571429,179.06480670000002L308.57142857142856,189.3365316L334.2857142857143,202.3075617L360,215.0732187L385.7142857142857,223.3872969L411.42857142857144,233.7296247L437.14285714285717,240.3417114L462.8571428571429,246.2080335L488.5714285714286,251.7243648L514.2857142857143,258.38841L540,263.1805554"/><path fill="none" stroke="#e6ab02" stroke-width="2" d="M25.714285714285715,65.09085329999999L51.42857142857143,106.0723959L77.14285714285714,103.5497517L102.85714285714286,130.48719029999998L128.57142857142858,135.2247054L154.28571428571428,134.3296515L180,135.1845411L205.71428571428572,132.42533189999997L231.42857142857144,143.86873169999998L257.14285714285717,148.0138269L282.8571428571429,156.0480579L308.57142857142856,150.6998073L334.2857142857143,158.2315284L360,157.1804361L385.7142857142857,165.7614174L411.42857142857144,172.98851159999998L437.14285714285717,193.8814839L462.8571428571429,204.7720155L488.5714285714286,211.83050070000002L514.2857142857143,219.09762389999997L540,226.6114536"/><path fill="none" stroke="#a6761d" stroke-width="2" d="M25.714285714285715,103.3747242L51.42857142857143,83.02262730000001L77.14285714285714,80.96954729999999L102.85714285714286,95.98160280000002L128.57142857142858,109.77562019999999L154.28571428571428,102.941283L180,106.74929970000002L205.71428571428572,110.96825609999999L231.42857142857144,113.14508670000001L257.14285714285717,130.2098727L282.8571428571429,131.23458060000002L308.57142857142856,148.2008499L334.2857142857143,156.5836467L360,163.3148061L385.7142857142857,178.0377825L411.42857142857144,181.45271100000002L437.14285714285717,186.86188950000002L462.8571428571429,189.79564349999998L488.5714285714286,190.5477693L514.2857142857143,184.3942968L540,196.30784219999998"/><path fill="none" stroke="#666666" stroke-width="2" d="M25.714285714285715,108.54732390000001L51.42857142857143,66.89414970000001L77.14285714285714,69.6795645L102.85714285714286,82.78679069999998L128.57142857142858,88.0258383L154.28571428571428,89.67312330000001L180,84.55011239999999L205.71428571428572,83.0525058L231.42857142857144,100.1493543L257.14285714285717,131.7717372L282.8571428571429,133.11369390000002L308.57142857142856,123.301983L334.2857142857143,126.89224949999999L360,126.3100254L385.7142857142857,122.54793659999999L411.42857142857144,100.63654439999999L437.14285714285717,83.0082936L462.8571428571429,93.0948558L488.5714285714286,101.9246952L514.2857142857143,111.44772750000001L540,111.60024570000002"/></g></svg>