<svg xmlns="http://www.w3.org/2000/svg" width="640" height="400"><g transform="translate(60,40)"><g class="axis" transform="translate(0, 300)" fill="none" font-size="14px" font-family="sans-serif" text-anchor="middle"><path class="domain" stroke="#000" d="M0.5,6V0.5H540.5V6"/><g class="tick" opacity="1" transform="translate(68,0)"><line stroke="#000" y2="6"/><text fill="#000" y="9" dy="0.71em">25</text></g><g class="tick" opacity="1" transform="translate(135.5,0)"><line stroke="#000" y2="6"/><text fill="#000" y="9" dy="0.71em">50</text></g><g class="tick" opacity="1" transform="translate(203,0)"><line stroke="#000" y2="6"/><text fill="#000" y="9" dy="0.71em">75</text></g><g class="tick" opacity="1" transform="translate(270.5,0)"><line stroke="#000" y2="6"/><text fill="#000" y="9" dy="0.71em">100</text></g><g class="tick" opacity="1" transform="translate(338,0)"><line stroke="#000" y2="6"/><text fill="#000" y="9" dy="0.71em">125</text></g><g class="tick" opacity="1" transform="translate(405.5,0)"><line stroke="#000" y2="6"/><text fill="#000" y="9" dy="0.71em">150</text></g><g class="tick" opacity="1" transform="translate(473,0)"><line stroke="#000" y2="6"/><text fill="#000" y="9" dy="0.71em">175</text></g><g class="tick" opacity="1" transform="translate(540.5,0)"><line stroke="#000" y2="6"/><text fill="#000" y="9" dy="0.71em">200</text></g></g><g class="axis" fill="none" font-size="14px" font-family="sans-serif" text-anchor="end"><path class="domain" stroke="#000" d="M-6,300.5H0.5V0.5H-6"/><g class="tick" opacity="1" transform="translate(0,300.5)"><line stroke="#000" x2="-6"/><text fill="#000" x="-9" dy="0.32em">0.1</text></g><g class="tick" opacity="1" transform="translate(0,225.5)"><line stroke="#000" x2="-6"/><text fill="#000" x="-9" dy="0.32em">1</text></g><g class="tick" opacity="1" transform="translate(0,150.5)"><line stroke="#000" x2="-6"/><text fill="#000" x="-9" dy="0.32em">10</text></g><g class="tick" opacity="1" transform="translate(0,75.50000000000003)"><line stroke="#000" x2="-6"/><text fill="#000" x="-9" dy="0.32em">100</text></g><g class="tick" opacity="1" transform="translate(0,0.5)"><line stroke="#000" x2="-6"/><text fill="#000" x="-9" dy="0.32em">1000</text></g></g><text text-anchor="middle" x="270" y="340" font-size="14px">Number of Leaf Nodes</text><text text-anchor="middle" transform="rotate(-90)" y="-40" x="-150" font-size="14px">Running Time (ms)</text><path fill="none" stroke="#1b9e77" stroke-width="2" d="M67.5,135.75764791448742L135,107.6850412474655L202.5,79.21740995938669L270,63.039641143115205L337.5,45.03964445001219L405,29.786710635757572L472.5,20.35730425410793L540,8.220501646321793"/><path fill="none" stroke="#d95f02" stroke-width="2" d="M67.5,243.26883882462846L135,236.43714035045127L202.5,222.38843256968426L270,211.30606309070305L337.5,195.7602045139363L405,190.78428013468846L472.5,182.0827396561677L540,163.66074116238738"/><path fill="none" stroke="#7570b3" stroke-width="2" d="M67.5,242.941746663273L135,233.2960686473018L202.5,223.21965454816072L270,207.19383434750432L337.5,200.72809716941083L405,188.30544004653586L472.5,176.57469092958274L540,166.67238578844808"/><path fill="none" stroke="#e7298a" stroke-width="2" d="M67.5,241.11575114637503L135,234.79793886616704L202.5,219.89246405815L270,202.60452022976125L337.5,197.92895301109428L405,191.78733560322416L472.5,183.78742006738833L540,175.69599682978588"/><path fill="none" stroke="#66a61e" stroke-width="2" d="M67.5,247.32029495537563L135,238.92943209390722L202.5,222.12554778683926L270,201.85622848023846L337.5,189.9424901357483L405,188.9047052535209L472.5,178.8499160489817L540,170.52737482070268"/><path fill="none" stroke="#e6ab02" stroke-width="2" d="M67.5,250.62553010258802L135,236.53585425019284L202.5,218.6117723173263L270,206.70205224295188L337.5,190.88252139041882L405,184.09491438305463L472.5,179.1192388058982L540,167.57960767124095"/><path fill="none" stroke="#a6761d" stroke-width="2" d="M67.5,247.19257376872812L135,237.94875866441043L202.5,219.31454992504135L270,207.49273590963958L337.5,197.6498124445291L405,186.64243987171227L472.5,177.84210284221007L540,166.94030908301824"/><path fill="none" stroke="#666666" stroke-width="2" d="M67.5,248.83302527293677L135,233.03407764334102L202.5,223.78049187776725L270,206.2780256914151L337.5,201.71074620363595L405,190.09148992017717L472.5,180.7329370861866L540,175.71851528676345"/></g></svg>