<svg xmlns="http://www.w3.org/2000/svg" width="640" height="400"><g transform="translate(100,40)"><g class="axis" transform="translate(0, 288)" fill="none" font-size="10" font-family="sans-serif" text-anchor="middle"><path class="domain" stroke="#000" d="M0.5,6V0.5H500.5V6"/><g class="tick" opacity="1" transform="translate(0.5,0)"><line stroke="#000" y2="6"/><text fill="#000" y="9" dy="0.71em" font-size="29px" font-family="Microsoft YaHei" transform="translate(0, 5)">0</text></g><g class="tick" opacity="1" transform="translate(71.92857142857143,0)"><line stroke="#000" y2="6"/><text fill="#000" y="9" dy="0.71em" font-size="29px" font-family="Microsoft YaHei" transform="translate(0, 5)">1.02</text></g><g class="tick" opacity="1" transform="translate(143.35714285714286,0)"><line stroke="#000" y2="6"/><text fill="#000" y="9" dy="0.71em" font-size="29px" font-family="Microsoft YaHei" transform="translate(0, 5)">1.05</text></g><g class="tick" opacity="1" transform="translate(214.78571428571428,0)"><line stroke="#000" y2="6"/><text fill="#000" y="9" dy="0.71em" font-size="29px" font-family="Microsoft YaHei" transform="translate(0, 5)">1.08</text></g><g class="tick" opacity="1" transform="translate(286.2142857142857,0)"><line stroke="#000" y2="6"/><text fill="#000" y="9" dy="0.71em" font-size="29px" font-family="Microsoft YaHei" transform="translate(0, 5)">1.11</text></g><g class="tick" opacity="1" transform="translate(357.64285714285717,0)"><line stroke="#000" y2="6"/><text fill="#000" y="9" dy="0.71em" font-size="29px" font-family="Microsoft YaHei" transform="translate(0, 5)">1.14</text></g><g class="tick" opacity="1" transform="translate(429.07142857142856,0)"><line stroke="#000" y2="6"/><text fill="#000" y="9" dy="0.71em" font-size="29px" font-family="Microsoft YaHei" transform="translate(0, 5)">1.17</text></g><g class="tick" opacity="1" transform="translate(500.5,0)"><line stroke="#000" y2="6"/><text fill="#000" y="9" dy="0.71em" font-size="29px" font-family="Microsoft YaHei" transform="translate(0, 5)">1.2</text></g></g><g class="axis" fill="none" font-size="10" font-family="sans-serif" text-anchor="end"><path class="domain" stroke="#000" d="M-6,288.5H0.5V0.5H-6"/><g class="tick" opacity="1" transform="translate(0,288.5)"><line stroke="#000" x2="-6"/><text fill="#000" x="-9" dy="0.32em" font-size="29px" font-family="Microsoft YaHei" transform="translate(0, 5)">0</text></g><g class="tick" opacity="1" transform="translate(0,230.9)"><line stroke="#000" x2="-6"/><text fill="#000" x="-9" dy="0.32em" font-size="29px" font-family="Microsoft YaHei" transform="translate(0, 5)">0.2</text></g><g class="tick" opacity="1" transform="translate(0,173.3)"><line stroke="#000" x2="-6"/><text fill="#000" x="-9" dy="0.32em" font-size="29px" font-family="Microsoft YaHei" transform="translate(0, 5)">0.4</text></g><g class="tick" opacity="1" transform="translate(0,115.70000000000002)"><line stroke="#000" x2="-6"/><text fill="#000" x="-9" dy="0.32em" font-size="29px" font-family="Microsoft YaHei" transform="translate(0, 5)">0.6</text></g><g class="tick" opacity="1" transform="translate(0,58.099999999999994)"><line stroke="#000" x2="-6"/><text fill="#000" x="-9" dy="0.32em" font-size="29px" font-family="Microsoft YaHei" transform="translate(0, 5)">0.8</text></g><g class="tick" opacity="1" transform="translate(0,0.5)"><line stroke="#000" x2="-6"/><text fill="#000" x="-9" dy="0.32em" font-size="29px" font-family="Microsoft YaHei" transform="translate(0, 5)">1</text></g></g><text text-anchor="middle" x="250" y="358" font-size="29px" font-family="Microsoft YaHei">Growth Rate</text><text text-anchor="middle" transform="rotate(-90)" y="-70" x="-144" font-size="29px" font-family="Microsoft YaHei">Average Aspect Ratio</text><path fill="none" stroke="#1b9e77" stroke-width="2" d="M23.80952380952381,98.14971398399999L47.61904761904762,95.1332112L71.42857142857143,96.53882688000002L95.23809523809524,92.63721455999999L119.04761904761905,77.66842435200002L142.85714285714286,100.10424873599999L166.66666666666669,100.66197023999999L190.47619047619048,92.458450656L214.28571428571428,101.63569075199999L238.0952380952381,114.53493974399998L261.9047619047619,125.140652064L285.7142857142857,114.39628675200001L309.5238095238095,117.98964518399998L333.33333333333337,120.18695212799997L357.14285714285717,119.25884102399999L380.95238095238096,87.33295727999999L404.76190476190476,75.419141472L428.57142857142856,85.949578944L452.3809523809524,95.565246624L476.1904761904762,97.346202624L500,105.73125580799999"/><path fill="none" stroke="#d95f02" stroke-width="2" d="M23.80952380952381,88.76975759999999L47.61904761904762,87.11980502400002L71.42857142857143,97.57582819199999L95.23809523809524,112.23986774400001L119.04761904761905,104.522976L142.85714285714286,106.85956060800001L166.66666666666669,116.458970112L190.47619047619048,106.56521625600001L214.28571428571428,106.36441488000003L238.0952380952381,120.13421270399999L261.9047619047619,111.33030643200001L285.7142857142857,106.55099308799998L309.5238095238095,109.07441740800002L333.33333333333337,105.617982528L357.14285714285717,92.63224166399999L380.95238095238096,100.99212393599998L404.76190476190476,101.675055168L428.57142857142856,101.47437072L452.3809523809524,82.99629849600001L476.1904761904762,79.892250048L500,78.290231904"/><path fill="none" stroke="#7570b3" stroke-width="2" d="M23.80952380952381,88.76975759999999L47.61904761904762,89.72788665600001L71.42857142857143,100.40235984L95.23809523809524,112.47809932799998L119.04761904761905,107.85849263999998L142.85714285714286,109.477794816L166.66666666666669,115.037256096L190.47619047619048,106.56551750399998L214.28571428571428,97.51285209600002L238.0952380952381,110.77161840000002L261.9047619047619,109.389477312L285.7142857142857,103.00685184L309.5238095238095,78.49278489600002L333.33333333333337,84.895049952L357.14285714285717,112.92991171199998L380.95238095238096,95.922741024L404.76190476190476,110.689332192L428.57142857142856,108.823262976L452.3809523809524,92.052821088L476.1904761904762,96.98520067199999L500,81.50829379200002"/><path fill="none" stroke="#e7298a" stroke-width="2" d="M23.80952380952381,196.721205408L47.61904761904762,191.075134176L71.42857142857143,184.52837088L95.23809523809524,164.316543264L119.04761904761905,145.731660768L142.85714285714286,132.393717504L166.66666666666669,127.27383408L190.47619047619048,108.123257376L214.28571428571428,115.54181222400001L238.0952380952381,110.513541024L261.9047619047619,100.92920342400001L285.7142857142857,119.38032835200002L309.5238095238095,144.629823168L333.33333333333337,148.645997568L357.14285714285717,161.017867872L380.95238095238096,173.93441644799998L404.76190476190476,179.119344672L428.57142857142856,191.755082592L452.3809523809524,198.06721488L476.1904761904762,211.08689712L500,216.497662848"/><path fill="none" stroke="#66a61e" stroke-width="2" d="M23.80952380952381,126.94574390400001L47.61904761904762,124.501542624L71.42857142857143,122.314112064L95.23809523809524,136.961623584L119.04761904761905,128.48156928L142.85714285714286,113.30596022400002L166.66666666666669,111.50668857600002L190.47619047619048,122.75433792000001L214.28571428571428,135.997121376L238.0952380952381,144.060206688L261.9047619047619,147.037311072L285.7142857142857,153.798086016L309.5238095238095,161.616422304L333.33333333333337,175.88910816L357.14285714285717,190.794411648L380.95238095238096,198.82193184L404.76190476190476,213.218500608L428.57142857142856,225.655389504L452.3809523809524,236.38613616L476.1904761904762,242.6529816L500,251.118766368"/><path fill="none" stroke="#e6ab02" stroke-width="2" d="M23.80952380952381,145.731586176L47.61904761904762,276.659870688L71.42857142857143,275.437592064L95.23809523809524,273.88941264L119.04761904761905,272.04856128L142.85714285714286,269.956424736L166.66666666666669,267.6820968L190.47619047619048,265.284180864L214.28571428571428,262.78221024L238.0952380952381,260.267625504L261.9047619047619,257.676911136L285.7142857142857,255.08869516800002L309.5238095238095,252.52254921600002L333.33333333333337,249.988308768L357.14285714285717,247.445548416L380.95238095238096,244.879892064L404.76190476190476,242.338844448L428.57142857142856,239.824412352L452.3809523809524,237.33809856L476.1904761904762,234.88106515200002L500,232.454238336"/><path fill="none" stroke="#a6761d" stroke-width="2" d="M23.80952380952381,126.94574390400001L47.61904761904762,100.273181472L71.42857142857143,118.54955203200001L95.23809523809524,118.737172224L119.04761904761905,111.97688371200002L142.85714285714286,103.00410287999998L166.66666666666669,88.764251328L190.47619047619048,84.66630566399999L214.28571428571428,103.817402784L238.0952380952381,102.01488076799998L261.9047619047619,101.10238444799998L285.7142857142857,106.27893388799998L309.5238095238095,74.42687318399999L333.33333333333337,64.81297555199998L357.14285714285717,72.11286720000001L380.95238095238096,68.672649312L404.76190476190476,67.08335183999998L428.57142857142856,90.88619184000001L452.3809523809524,92.92221763199998L476.1904761904762,94.478026752L500,88.272641376"/><path fill="none" stroke="#666666" stroke-width="2" d="M23.80952380952381,98.14971398399999L47.61904761904762,95.1332112L71.42857142857143,96.53882688000002L95.23809523809524,92.63721455999999L119.04761904761905,77.66842435200002L142.85714285714286,100.10424873599999L166.66666666666669,100.66197023999999L190.47619047619048,92.458450656L214.28571428571428,101.63569075199999L238.0952380952381,114.53493974399998L261.9047619047619,125.140652064L285.7142857142857,114.39628675200001L309.5238095238095,117.98964518399998L333.33333333333337,120.18695212799997L357.14285714285717,119.25884102399999L380.95238095238096,87.33295727999999L404.76190476190476,75.419141472L428.57142857142856,85.949578944L452.3809523809524,95.565246624L476.1904761904762,97.346202624L500,105.73125580799999"/></g></svg>