<svg xmlns="http://www.w3.org/2000/svg" width="640" height="400"><g transform="translate(100,40)"><g class="axis" transform="translate(0, 288)" fill="none" font-size="10" font-family="sans-serif" text-anchor="middle"><path class="domain" stroke="#000" d="M0.5,6V0.5H500.5V6"/><g class="tick" opacity="1" transform="translate(0.5,0)"><line stroke="#000" y2="6"/><text fill="#000" y="9" dy="0.71em" font-size="29px" font-family="Microsoft YaHei" transform="translate(0, 5)">0</text></g><g class="tick" opacity="1" transform="translate(71.92857142857143,0)"><line stroke="#000" y2="6"/><text fill="#000" y="9" dy="0.71em" font-size="29px" font-family="Microsoft YaHei" transform="translate(0, 5)">1.02</text></g><g class="tick" opacity="1" transform="translate(143.35714285714286,0)"><line stroke="#000" y2="6"/><text fill="#000" y="9" dy="0.71em" font-size="29px" font-family="Microsoft YaHei" transform="translate(0, 5)">1.05</text></g><g class="tick" opacity="1" transform="translate(214.78571428571428,0)"><line stroke="#000" y2="6"/><text fill="#000" y="9" dy="0.71em" font-size="29px" font-family="Microsoft YaHei" transform="translate(0, 5)">1.08</text></g><g class="tick" opacity="1" transform="translate(286.2142857142857,0)"><line stroke="#000" y2="6"/><text fill="#000" y="9" dy="0.71em" font-size="29px" font-family="Microsoft YaHei" transform="translate(0, 5)">1.11</text></g><g class="tick" opacity="1" transform="translate(357.64285714285717,0)"><line stroke="#000" y2="6"/><text fill="#000" y="9" dy="0.71em" font-size="29px" font-family="Microsoft YaHei" transform="translate(0, 5)">1.14</text></g><g class="tick" opacity="1" transform="translate(429.07142857142856,0)"><line stroke="#000" y2="6"/><text fill="#000" y="9" dy="0.71em" font-size="29px" font-family="Microsoft YaHei" transform="translate(0, 5)">1.17</text></g><g class="tick" opacity="1" transform="translate(500.5,0)"><line stroke="#000" y2="6"/><text fill="#000" y="9" dy="0.71em" font-size="29px" font-family="Microsoft YaHei" transform="translate(0, 5)">1.2</text></g></g><g class="axis" fill="none" font-size="10" font-family="sans-serif" text-anchor="end"><path class="domain" stroke="#000" d="M-6,288.5H0.5V0.5H-6"/><g class="tick" opacity="1" transform="translate(0,288.5)"><line stroke="#000" x2="-6"/><text fill="#000" x="-9" dy="0.32em" font-size="29px" font-family="Microsoft YaHei" transform="translate(0, 5)">0</text></g><g class="tick" opacity="1" transform="translate(0,230.9)"><line stroke="#000" x2="-6"/><text fill="#000" x="-9" dy="0.32em" font-size="29px" font-family="Microsoft YaHei" transform="translate(0, 5)">0.2</text></g><g class="tick" opacity="1" transform="translate(0,173.3)"><line stroke="#000" x2="-6"/><text fill="#000" x="-9" dy="0.32em" font-size="29px" font-family="Microsoft YaHei" transform="translate(0, 5)">0.4</text></g><g class="tick" opacity="1" transform="translate(0,115.70000000000002)"><line stroke="#000" x2="-6"/><text fill="#000" x="-9" dy="0.32em" font-size="29px" font-family="Microsoft YaHei" transform="translate(0, 5)">0.6</text></g><g class="tick" opacity="1" transform="translate(0,58.099999999999994)"><line stroke="#000" x2="-6"/><text fill="#000" x="-9" dy="0.32em" font-size="29px" font-family="Microsoft YaHei" transform="translate(0, 5)">0.8</text></g><g class="tick" opacity="1" transform="translate(0,0.5)"><line stroke="#000" x2="-6"/><text fill="#000" x="-9" dy="0.32em" font-size="29px" font-family="Microsoft YaHei" transform="translate(0, 5)">1</text></g></g><text text-anchor="middle" x="250" y="358" font-size="29px" font-family="Microsoft YaHei">Growth Rate</text><text text-anchor="middle" transform="rotate(-90)" y="-70" x="-144" font-size="29px" font-family="Microsoft YaHei">Median Aspect Ratio</text><path fill="none" stroke="#1b9e77" stroke-width="2" d="M23.80952380952381,104.205430944L47.61904761904762,66.52331971199999L71.42857142857143,90.77424163199998L95.23809523809524,76.48072502400001L119.04761904761905,68.67813916800003L142.85714285714286,85.73476463999998L166.66666666666669,82.19519366400002L190.47619047619048,82.30886899199999L214.28571428571428,102.136103424L238.0952380952381,121.24957564799999L261.9047619047619,130.13923248L285.7142857142857,112.085596512L309.5238095238095,120.998127168L333.33333333333337,122.28493190400002L357.14285714285717,122.271224832L380.95238095238096,82.148461344L404.76190476190476,75.64932028800001L428.57142857142856,83.91474604799998L452.3809523809524,97.05924547199999L476.1904761904762,100.94757523199999L500,110.61045244799999"/><path fill="none" stroke="#d95f02" stroke-width="2" d="M23.80952380952381,81.689710752L47.61904761904762,78.244219872L71.42857142857143,75.986484768L95.23809523809524,113.21653449600001L119.04761904761905,92.045857824L142.85714285714286,104.87325484800002L166.66666666666669,114.807504096L190.47619047619048,106.856386848L214.28571428571428,90.22192416000001L238.0952380952381,112.68883123199998L261.9047619047619,101.215892736L285.7142857142857,107.75817964800001L309.5238095238095,101.472559776L333.33333333333337,112.36571078400002L357.14285714285717,82.18985702399999L380.95238095238096,105.1845768L404.76190476190476,100.6424424L428.57142857142856,95.648265504L452.3809523809524,80.4418776L476.1904761904762,76.266368064L500,69.80652172799998"/><path fill="none" stroke="#7570b3" stroke-width="2" d="M23.80952380952381,81.689710752L47.61904761904762,83.105705952L71.42857142857143,84.84330297599999L95.23809523809524,119.37412656000001L119.04761904761905,102.913468704L142.85714285714286,98.828597952L166.66666666666669,117.508588704L190.47619047619048,116.00951183999999L214.28571428571428,93.40680931200001L238.0952380952381,102.25079251199998L261.9047619047619,108.933685056L285.7142857142857,99.37454572799999L309.5238095238095,73.62578534399998L333.33333333333337,87.86037369599998L357.14285714285717,115.47883756799999L380.95238095238096,97.96393929599998L404.76190476190476,95.03858736000001L428.57142857142856,101.166229152L452.3809523809524,91.519327008L476.1904761904762,95.59686412799999L500,76.21439587199998"/><path fill="none" stroke="#e7298a" stroke-width="2" d="M23.80952380952381,162.08724844800003L47.61904761904762,155.240971776L71.42857142857143,115.96010169600001L95.23809523809524,117.075600288L119.04761904761905,92.57145811199999L142.85714285714286,66.89524982399999L166.66666666666669,63.801252288L190.47619047619048,61.856154720000006L214.28571428571428,80.61879023999998L238.0952380952381,72.55112198399999L261.9047619047619,88.262052192L285.7142857142857,99.391541472L309.5238095238095,105.005143296L333.33333333333337,110.67348729600002L357.14285714285717,128.226486816L380.95238095238096,141.0472656L404.76190476190476,148.131067968L428.57142857142856,149.596370496L452.3809523809524,150.47664566400002L476.1904761904762,160.482070656L500,159.233283072"/><path fill="none" stroke="#66a61e" stroke-width="2" d="M23.80952380952381,76.91968799999998L47.61904761904762,70.252928064L71.42857142857143,67.49760038399998L95.23809523809524,69.570678528L119.04761904761905,60.45459552L142.85714285714286,56.19524831999999L166.66666666666669,56.37371212800002L190.47619047619048,80.42496249599998L214.28571428571428,88.54176009600002L238.0952380952381,107.805350592L261.9047619047619,105.43339670400002L285.7142857142857,99.05615078399998L309.5238095238095,119.73107318400002L333.33333333333337,123.15899577600001L357.14285714285717,127.83604060800002L380.95238095238096,132.292134432L404.76190476190476,146.58916464L428.57142857142856,173.7013968L452.3809523809524,182.98841328L476.1904761904762,167.323653504L500,178.557687936"/><path fill="none" stroke="#e6ab02" stroke-width="2" d="M23.80952380952381,62.487219167999996L47.61904761904762,277.515166752L71.42857142857143,276.627979584L95.23809523809524,275.678830944L119.04761904761905,274.53890592L142.85714285714286,272.50339392L166.66666666666669,270.56409984L190.47619047619048,268.890396192L214.28571428571428,266.878213632L238.0952380952381,263.673716256L261.9047619047619,261.523975968L285.7142857142857,258.865307136L309.5238095238095,256.227194016L333.33333333333337,253.086881184L357.14285714285717,250.361551008L380.95238095238096,248.393292192L404.76190476190476,246.184384032L428.57142857142856,243.604210752L452.3809523809524,240.707007936L476.1904761904762,238.352131872L500,236.54378016"/><path fill="none" stroke="#a6761d" stroke-width="2" d="M23.80952380952381,76.91968799999998L47.61904761904762,71.999773632L71.42857142857143,104.118541056L95.23809523809524,108.737942976L119.04761904761905,101.11706035200001L142.85714285714286,55.20882009599998L166.66666666666669,60.844685760000004L190.47619047619048,64.311570432L214.28571428571428,87.94406361600002L238.0952380952381,94.40032579199999L261.9047619047619,81.80297539200001L285.7142857142857,92.56763663999999L309.5238095238095,60.207672384000006L333.33333333333337,61.73911065600001L357.14285714285717,59.04121276800001L380.95238095238096,63.02033193599999L404.76190476190476,66.169943136L428.57142857142856,81.90273340799999L452.3809523809524,91.66026384L476.1904761904762,88.702959744L500,82.97365104000002"/><path fill="none" stroke="#666666" stroke-width="2" d="M23.80952380952381,104.205430944L47.61904761904762,66.52331971199999L71.42857142857143,90.77424163199998L95.23809523809524,76.48072502400001L119.04761904761905,68.67813916800003L142.85714285714286,85.73476463999998L166.66666666666669,82.19519366400002L190.47619047619048,82.30886899199999L214.28571428571428,102.136103424L238.0952380952381,121.24957564799999L261.9047619047619,130.13923248L285.7142857142857,112.085596512L309.5238095238095,120.998127168L333.33333333333337,122.28493190400002L357.14285714285717,122.271224832L380.95238095238096,82.148461344L404.76190476190476,75.64932028800001L428.57142857142856,83.91474604799998L452.3809523809524,97.05924547199999L476.1904761904762,100.94757523199999L500,110.61045244799999"/></g></svg>