<svg xmlns="http://www.w3.org/2000/svg" width="640" height="400"><g transform="translate(100,40)"><g class="axis" transform="translate(0, 288)" fill="none" font-size="10" font-family="sans-serif" text-anchor="middle"><path class="domain" stroke="#000" d="M0.5,6V0.5H500.5V6"/><g class="tick" opacity="1" transform="translate(0.5,0)"><line stroke="#000" y2="6"/><text fill="#000" y="9" dy="0.71em" font-size="29px" font-family="Microsoft YaHei" transform="translate(0, 5)">0</text></g><g class="tick" opacity="1" transform="translate(71.92857142857143,0)"><line stroke="#000" y2="6"/><text fill="#000" y="9" dy="0.71em" font-size="29px" font-family="Microsoft YaHei" transform="translate(0, 5)">1.02</text></g><g class="tick" opacity="1" transform="translate(143.35714285714286,0)"><line stroke="#000" y2="6"/><text fill="#000" y="9" dy="0.71em" font-size="29px" font-family="Microsoft YaHei" transform="translate(0, 5)">1.05</text></g><g class="tick" opacity="1" transform="translate(214.78571428571428,0)"><line stroke="#000" y2="6"/><text fill="#000" y="9" dy="0.71em" font-size="29px" font-family="Microsoft YaHei" transform="translate(0, 5)">1.08</text></g><g class="tick" opacity="1" transform="translate(286.2142857142857,0)"><line stroke="#000" y2="6"/><text fill="#000" y="9" dy="0.71em" font-size="29px" font-family="Microsoft YaHei" transform="translate(0, 5)">1.11</text></g><g class="tick" opacity="1" transform="translate(357.64285714285717,0)"><line stroke="#000" y2="6"/><text fill="#000" y="9" dy="0.71em" font-size="29px" font-family="Microsoft YaHei" transform="translate(0, 5)">1.14</text></g><g class="tick" opacity="1" transform="translate(429.07142857142856,0)"><line stroke="#000" y2="6"/><text fill="#000" y="9" dy="0.71em" font-size="29px" font-family="Microsoft YaHei" transform="translate(0, 5)">1.17</text></g><g class="tick" opacity="1" transform="translate(500.5,0)"><line stroke="#000" y2="6"/><text fill="#000" y="9" dy="0.71em" font-size="29px" font-family="Microsoft YaHei" transform="translate(0, 5)">1.2</text></g></g><g class="axis" fill="none" font-size="10" font-family="sans-serif" text-anchor="end"><path class="domain" stroke="#000" d="M-6,288.5H0.5V0.5H-6"/><g class="tick" opacity="1" transform="translate(0,288.5)"><line stroke="#000" x2="-6"/><text fill="#000" x="-9" dy="0.32em" font-size="29px" font-family="Microsoft YaHei" transform="translate(0, 5)">0</text></g><g class="tick" opacity="1" transform="translate(0,230.9)"><line stroke="#000" x2="-6"/><text fill="#000" x="-9" dy="0.32em" font-size="29px" font-family="Microsoft YaHei" transform="translate(0, 5)">0.2</text></g><g class="tick" opacity="1" transform="translate(0,173.3)"><line stroke="#000" x2="-6"/><text fill="#000" x="-9" dy="0.32em" font-size="29px" font-family="Microsoft YaHei" transform="translate(0, 5)">0.4</text></g><g class="tick" opacity="1" transform="translate(0,115.70000000000002)"><line stroke="#000" x2="-6"/><text fill="#000" x="-9" dy="0.32em" font-size="29px" font-family="Microsoft YaHei" transform="translate(0, 5)">0.6</text></g><g class="tick" opacity="1" transform="translate(0,58.099999999999994)"><line stroke="#000" x2="-6"/><text fill="#000" x="-9" dy="0.32em" font-size="29px" font-family="Microsoft YaHei" transform="translate(0, 5)">0.8</text></g><g class="tick" opacity="1" transform="translate(0,0.5)"><line stroke="#000" x2="-6"/><text fill="#000" x="-9" dy="0.32em" font-size="29px" font-family="Microsoft YaHei" transform="translate(0, 5)">1</text></g></g><text text-anchor="middle" x="250" y="358" font-size="29px" font-family="Microsoft YaHei">Growth Rate</text><text text-anchor="middle" transform="rotate(-90)" y="-70" x="-144" font-size="29px" font-family="Microsoft YaHei">Average Aspect Ratio</text><path fill="none" stroke="#1b9e77" stroke-width="2" d="M23.80952380952381,98.14971398399999L47.61904761904762,95.136620832L71.42857142857143,96.54885475200001L95.23809523809524,92.700765504L119.04761904761905,83.25929664L142.85714285714286,100.06137763200002L166.66666666666669,100.92890304L190.47619047619048,93.11668272L214.28571428571428,102.80292767999998L238.0952380952381,108.203607936L261.9047619047619,124.94735740799999L285.7142857142857,122.98967337600001L309.5238095238095,116.86634784L333.33333333333337,120.066411168L357.14285714285717,119.093976L380.95238095238096,96.589184832L404.76190476190476,78.60245558399998L428.57142857142856,84.18057926399999L452.3809523809524,93.881861568L476.1904761904762,102.77558927999999L500,104.50281455999999"/><path fill="none" stroke="#d95f02" stroke-width="2" d="M23.80952380952381,88.76975759999999L47.61904761904762,89.601796224L71.42857142857143,99.946651968L95.23809523809524,109.72180800000001L119.04761904761905,115.573663872L142.85714285714286,112.81173379200001L166.66666666666669,107.697053952L190.47619047619048,109.093201056L214.28571428571428,103.30168867199998L238.0952380952381,110.44074931200001L261.9047619047619,101.41587072000002L285.7142857142857,95.96172585600002L309.5238095238095,111.74868172800001L333.33333333333337,106.819609248L357.14285714285717,100.75112524800002L380.95238095238096,97.309865376L404.76190476190476,94.722313248L428.57142857142856,91.456351488L452.3809523809524,89.262639936L476.1904761904762,82.72251187200001L500,73.78446268799999"/><path fill="none" stroke="#7570b3" stroke-width="2" d="M23.80952380952381,88.76975759999999L47.61904761904762,95.91789916799999L71.42857142857143,101.05281619200002L95.23809523809524,109.145001888L119.04761904761905,110.469122784L142.85714285714286,110.37257510400002L166.66666666666669,108.14926838399998L190.47619047619048,104.82224227199998L214.28571428571428,110.68054531199999L238.0952380952381,98.885975616L261.9047619047619,95.87599344L285.7142857142857,105.589864224L309.5238095238095,109.226587392L333.33333333333337,111.59321875199998L357.14285714285717,108.52965100799997L380.95238095238096,106.600238496L404.76190476190476,105.211783008L428.57142857142856,103.109189472L452.3809523809524,103.77772790399999L476.1904761904762,103.72728528000002L500,85.812290496"/><path fill="none" stroke="#e7298a" stroke-width="2" d="M23.80952380952381,196.721205408L47.61904761904762,202.802803776L71.42857142857143,213.502580064L95.23809523809524,220.51675296000002L119.04761904761905,228.526119936L142.85714285714286,236.887201152L166.66666666666669,246.24769075199998L190.47619047619048,252.009713376L214.28571428571428,261.084652704L238.0952380952381,263.599915392L261.9047619047619,272.718359136L285.7142857142857,281.364867072L309.5238095238095,283.828041216L333.33333333333337,284.485494528L357.14285714285717,286.248851424L380.95238095238096,286.59772512L404.76190476190476,286.884529344L428.57142857142856,287.117553024L452.3809523809524,287.045882208L476.1904761904762,286.946582112L500,287.150774976"/><path fill="none" stroke="#66a61e" stroke-width="2" d="M23.80952380952381,126.94574390400001L47.61904761904762,121.05775296000002L71.42857142857143,117.771506208L95.23809523809524,119.53216396799999L119.04761904761905,117.10193068799998L142.85714285714286,112.83588489600001L166.66666666666669,110.82003840000002L190.47619047619048,141.417995904L214.28571428571428,165.60352569600002L238.0952380952381,185.36945673600002L261.9047619047619,227.846871648L285.7142857142857,167.357343744L309.5238095238095,177.516931968L333.33333333333337,176.447202624L357.14285714285717,219.36899088L380.95238095238096,230.0734152L404.76190476190476,198.200272032L428.57142857142856,212.158800288L452.3809523809524,224.920636704L476.1904761904762,233.08334064000002L500,243.379476864"/><path fill="none" stroke="#e6ab02" stroke-width="2" d="M23.80952380952381,145.731586176L47.61904761904762,149.245632L71.42857142857143,153.498458016L95.23809523809524,150.64295241599999L119.04761904761905,157.069929024L142.85714285714286,149.952931776L166.66666666666669,157.77116179200002L190.47619047619048,163.196925696L214.28571428571428,158.63023728L238.0952380952381,159.730084224L261.9047619047619,170.475441408L285.7142857142857,162.551698848L309.5238095238095,174.84247872L333.33333333333337,176.8905144L357.14285714285717,167.99016816L380.95238095238096,161.55805075199999L404.76190476190476,155.925663552L428.57142857142856,150.703724736L452.3809523809524,145.803567168L476.1904761904762,141.21888364799997L500,127.61617420799999"/><path fill="none" stroke="#a6761d" stroke-width="2" d="M23.80952380952381,126.94574390400001L47.61904761904762,136.39578912000002L71.42857142857143,141.748862976L95.23809523809524,134.87961628800002L119.04761904761905,136.215732096L142.85714285714286,137.012851296L166.66666666666669,128.119753152L190.47619047619048,126.19170230399999L214.28571428571428,125.231496768L238.0952380952381,117.89550431999999L261.9047619047619,134.97036940799998L285.7142857142857,108.08767468799999L309.5238095238095,108.42986707200001L333.33333333333337,92.052970848L357.14285714285717,101.80314662400002L380.95238095238096,112.191960672L404.76190476190476,113.39061753600001L428.57142857142856,119.025941184L452.3809523809524,94.165014816L476.1904761904762,112.177843776L500,108.25053292800001"/><path fill="none" stroke="#666666" stroke-width="2" d="M23.80952380952381,98.14971398399999L47.61904761904762,95.136620832L71.42857142857143,96.54885475200001L95.23809523809524,92.700765504L119.04761904761905,83.25929664L142.85714285714286,100.06137763200002L166.66666666666669,100.92890304L190.47619047619048,93.11668272L214.28571428571428,102.80292767999998L238.0952380952381,108.203607936L261.9047619047619,124.94735740799999L285.7142857142857,122.98967337600001L309.5238095238095,116.86634784L333.33333333333337,120.066411168L357.14285714285717,119.093976L380.95238095238096,96.589184832L404.76190476190476,78.60245558399998L428.57142857142856,84.18057926399999L452.3809523809524,93.881861568L476.1904761904762,102.77558927999999L500,104.50281455999999"/></g></svg>