<svg xmlns="http://www.w3.org/2000/svg" width="640" height="400"><g transform="translate(100,40)"><g class="axis" transform="translate(0, 288)" fill="none" font-size="10" font-family="sans-serif" text-anchor="middle"><path class="domain" stroke="#000" d="M0.5,6V0.5H500.5V6"/><g class="tick" opacity="1" transform="translate(0.5,0)"><line stroke="#000" y2="6"/><text fill="#000" y="9" dy="0.71em" font-size="29px" font-family="Microsoft YaHei" transform="translate(0, 5)">0</text></g><g class="tick" opacity="1" transform="translate(71.92857142857143,0)"><line stroke="#000" y2="6"/><text fill="#000" y="9" dy="0.71em" font-size="29px" font-family="Microsoft YaHei" transform="translate(0, 5)">1.02</text></g><g class="tick" opacity="1" transform="translate(143.35714285714286,0)"><line stroke="#000" y2="6"/><text fill="#000" y="9" dy="0.71em" font-size="29px" font-family="Microsoft YaHei" transform="translate(0, 5)">1.05</text></g><g class="tick" opacity="1" transform="translate(214.78571428571428,0)"><line stroke="#000" y2="6"/><text fill="#000" y="9" dy="0.71em" font-size="29px" font-family="Microsoft YaHei" transform="translate(0, 5)">1.08</text></g><g class="tick" opacity="1" transform="translate(286.2142857142857,0)"><line stroke="#000" y2="6"/><text fill="#000" y="9" dy="0.71em" font-size="29px" font-family="Microsoft YaHei" transform="translate(0, 5)">1.11</text></g><g class="tick" opacity="1" transform="translate(357.64285714285717,0)"><line stroke="#000" y2="6"/><text fill="#000" y="9" dy="0.71em" font-size="29px" font-family="Microsoft YaHei" transform="translate(0, 5)">1.14</text></g><g class="tick" opacity="1" transform="translate(429.07142857142856,0)"><line stroke="#000" y2="6"/><text fill="#000" y="9" dy="0.71em" font-size="29px" font-family="Microsoft YaHei" transform="translate(0, 5)">1.17</text></g><g class="tick" opacity="1" transform="translate(500.5,0)"><line stroke="#000" y2="6"/><text fill="#000" y="9" dy="0.71em" font-size="29px" font-family="Microsoft YaHei" transform="translate(0, 5)">1.2</text></g></g><g class="axis" fill="none" font-size="10" font-family="sans-serif" text-anchor="end"><path class="domain" stroke="#000" d="M-6,288.5H0.5V0.5H-6"/><g class="tick" opacity="1" transform="translate(0,288.5)"><line stroke="#000" x2="-6"/><text fill="#000" x="-9" dy="0.32em" font-size="29px" font-family="Microsoft YaHei" transform="translate(0, 5)">0</text></g><g class="tick" opacity="1" transform="translate(0,230.9)"><line stroke="#000" x2="-6"/><text fill="#000" x="-9" dy="0.32em" font-size="29px" font-family="Microsoft YaHei" transform="translate(0, 5)">0.2</text></g><g class="tick" opacity="1" transform="translate(0,173.3)"><line stroke="#000" x2="-6"/><text fill="#000" x="-9" dy="0.32em" font-size="29px" font-family="Microsoft YaHei" transform="translate(0, 5)">0.4</text></g><g class="tick" opacity="1" transform="translate(0,115.70000000000002)"><line stroke="#000" x2="-6"/><text fill="#000" x="-9" dy="0.32em" font-size="29px" font-family="Microsoft YaHei" transform="translate(0, 5)">0.6</text></g><g class="tick" opacity="1" transform="translate(0,58.099999999999994)"><line stroke="#000" x2="-6"/><text fill="#000" x="-9" dy="0.32em" font-size="29px" font-family="Microsoft YaHei" transform="translate(0, 5)">0.8</text></g><g class="tick" opacity="1" transform="translate(0,0.5)"><line stroke="#000" x2="-6"/><text fill="#000" x="-9" dy="0.32em" font-size="29px" font-family="Microsoft YaHei" transform="translate(0, 5)">1</text></g></g><text text-anchor="middle" x="250" y="358" font-size="29px" font-family="Microsoft YaHei">Growth Rate</text><text text-anchor="middle" transform="rotate(-90)" y="-70" x="-144" font-size="29px" font-family="Microsoft YaHei">Median Aspect Ratio</text><path fill="none" stroke="#1b9e77" stroke-width="2" d="M23.80952380952381,104.205430944L47.61904761904762,66.37092278400002L71.42857142857143,90.58747132800002L95.23809523809524,76.17422131199999L119.04761904761905,74.442829824L142.85714285714286,84.452011776L166.66666666666669,80.36819827199997L190.47619047619048,81.683524224L214.28571428571428,103.844788416L238.0952380952381,115.743315456L261.9047619047619,129.04180646400002L285.7142857142857,127.55791987199999L309.5238095238095,118.95179270399998L333.33333333333337,122.14046592L357.14285714285717,122.18248108799997L380.95238095238096,98.923859136L404.76190476190476,75.763882368L428.57142857142856,83.83767580799997L452.3809523809524,96.947337312L476.1904761904762,105.71674060799998L500,106.55750246400001"/><path fill="none" stroke="#d95f02" stroke-width="2" d="M23.80952380952381,81.689710752L47.61904761904762,74.441373408L71.42857142857143,75.537465984L95.23809523809524,105.933917952L119.04761904761905,102.99781929599999L142.85714285714286,104.58101174400002L166.66666666666669,95.23556063999999L190.47619047619048,106.709638464L214.28571428571428,96.95583619200002L238.0952380952381,116.81910230400001L261.9047619047619,99.68359075200001L285.7142857142857,95.10941087999998L309.5238095238095,116.096812704L333.33333333333337,86.687070912L357.14285714285717,95.519986848L380.95238095238096,96.349825152L404.76190476190476,96.445882944L428.57142857142856,91.74714047999998L452.3809523809524,84.70564588799999L476.1904761904762,79.96819392L500,68.794748064"/><path fill="none" stroke="#7570b3" stroke-width="2" d="M23.80952380952381,81.689710752L47.61904761904762,89.82890726400001L71.42857142857143,87.25502592000001L95.23809523809524,110.502216576L119.04761904761905,99.63276163200001L142.85714285714286,96.426639072L166.66666666666669,102.078444096L190.47619047619048,110.43742982399999L214.28571428571428,109.69084799999999L238.0952380952381,98.005493952L261.9047619047619,86.13903369599998L285.7142857142857,105.69414383999998L309.5238095238095,105.65463743999999L333.33333333333337,92.41350364800002L357.14285714285717,107.66786832L380.95238095238096,109.715575968L404.76190476190476,105.9353136L428.57142857142856,106.00578374399998L452.3809523809524,111.21453705600001L476.1904761904762,108.90755279999999L500,82.89937296"/><path fill="none" stroke="#e7298a" stroke-width="2" d="M23.80952380952381,162.08724844800003L47.61904761904762,164.064380256L71.42857142857143,163.64274796799998L95.23809523809524,172.898367264L119.04761904761905,195.907701888L142.85714285714286,205.924235616L166.66666666666669,206.037601056L190.47619047619048,218.952127872L214.28571428571428,242.84281996800001L238.0952380952381,246.316576608L261.9047619047619,254.32204176L285.7142857142857,262.43896464L309.5238095238095,266.433330816L333.33333333333337,269.328943872L357.14285714285717,275.032976544L380.95238095238096,276.956719488L404.76190476190476,278.409063744L428.57142857142856,279.536776128L452.3809523809524,280.575854208L476.1904761904762,280.280322432L500,280.870550496"/><path fill="none" stroke="#66a61e" stroke-width="2" d="M23.80952380952381,76.91968799999998L47.61904761904762,95.058295488L71.42857142857143,76.35700771200001L95.23809523809524,84.91871807999999L119.04761904761905,103.89381868799998L142.85714285714286,101.66919004800002L166.66666666666669,82.10656627200001L190.47619047619048,113.990510016L214.28571428571428,119.15318275199999L238.0952380952381,139.914746208L261.9047619047619,124.90557753599998L285.7142857142857,130.26562847999998L309.5238095238095,127.150567776L333.33333333333337,127.48946601600002L357.14285714285717,128.22887952000002L380.95238095238096,125.53400304000002L404.76190476190476,125.37881107200002L428.57142857142856,125.35028928000003L452.3809523809524,128.76258239999999L476.1904761904762,135.14349312L500,144.86311152"/><path fill="none" stroke="#e6ab02" stroke-width="2" d="M23.80952380952381,62.487219167999996L47.61904761904762,50.79834259200001L71.42857142857143,39.65789635200002L95.23809523809524,56.27179929600001L119.04761904761905,56.10336192L142.85714285714286,63.795527424L166.66666666666669,83.71280649599998L190.47619047619048,184.405521024L214.28571428571428,182.50274448L238.0952380952381,173.889738144L261.9047619047619,183.302190144L285.7142857142857,176.792040288L309.5238095238095,181.77675696L333.33333333333337,193.664536128L357.14285714285717,190.267134048L380.95238095238096,184.492237824L404.76190476190476,178.98847056L428.57142857142856,169.902579744L452.3809523809524,161.371628064L476.1904761904762,153.66200256L500,58.314744287999986"/><path fill="none" stroke="#a6761d" stroke-width="2" d="M23.80952380952381,76.91968799999998L47.61904761904762,100.04602118400001L71.42857142857143,75.33109411199999L95.23809523809524,76.448080224L119.04761904761905,109.69317820799998L142.85714285714286,96.321866688L166.66666666666669,88.68259555200001L190.47619047619048,70.70442710399999L214.28571428571428,90.87156719999999L238.0952380952381,102.146734944L261.9047619047619,108.38172528000001L285.7142857142857,88.27460927999999L309.5238095238095,102.98132726400002L333.33333333333337,72.517235616L357.14285714285717,79.70928940799999L380.95238095238096,103.78484006400001L404.76190476190476,105.37301433600001L428.57142857142856,105.408660096L452.3809523809524,83.565944064L476.1904761904762,104.076277344L500,102.980800224"/><path fill="none" stroke="#666666" stroke-width="2" d="M23.80952380952381,104.205430944L47.61904761904762,66.37092278400002L71.42857142857143,90.58747132800002L95.23809523809524,76.17422131199999L119.04761904761905,74.442829824L142.85714285714286,84.452011776L166.66666666666669,80.36819827199997L190.47619047619048,81.683524224L214.28571428571428,103.844788416L238.0952380952381,115.743315456L261.9047619047619,129.04180646400002L285.7142857142857,127.55791987199999L309.5238095238095,118.95179270399998L333.33333333333337,122.14046592L357.14285714285717,122.18248108799997L380.95238095238096,98.923859136L404.76190476190476,75.763882368L428.57142857142856,83.83767580799997L452.3809523809524,96.947337312L476.1904761904762,105.71674060799998L500,106.55750246400001"/></g></svg>